<svg version="1.1" id="Layer_1" xmlns="http://www.w3.org/2000/svg" xmlns:xlink="http://www.w3.org/1999/xlink" x="0px" y="0px"
	 width="100%" viewBox="0 0 1950 2208" enable-background="new 0 0 1950 2208" xml:space="preserve">
<path fill="#000000" opacity="1.000000" stroke="none" 
	d="
M1036.000000,2210.000000 
	C690.666687,2210.000000 346.333344,2210.000000 2.000000,2210.000000 
	C2.000000,1474.000000 2.000000,738.000000 2.000000,2.000000 
	C652.000000,2.000000 1302.000000,2.000000 1952.000000,2.000000 
	C1952.000000,738.000000 1952.000000,1474.000000 1952.000000,2210.000000 
	C1647.000000,2210.000000 1342.000000,2210.000000 1036.000000,2210.000000 
M1782.057495,1674.109375 
	C1782.057495,1674.109375 1782.088135,1674.275391 1783.313843,1675.462158 
	C1784.264526,1674.394775 1785.215332,1673.327515 1785.993896,1672.081787 
	C1785.993896,1672.081787 1786.164185,1672.279785 1787.442749,1673.334351 
	C1790.994385,1670.987305 1794.546021,1668.640259 1798.092407,1666.188965 
	C1798.092407,1666.188965 1798.195801,1666.204346 1799.697632,1666.620972 
	C1800.516602,1665.463623 1801.335449,1664.306274 1802.166870,1663.073242 
	C1802.166870,1663.073242 1802.225464,1663.023682 1803.655396,1661.873901 
	C1803.764282,1658.548706 1803.966797,1655.223389 1803.968018,1651.898193 
	C1803.987305,1600.233032 1804.007812,1548.567993 1803.970337,1496.902832 
	C1803.946777,1464.573608 1803.826660,1432.244263 1804.562134,1398.782349 
	C1810.208008,1392.676392 1817.552979,1387.856812 1820.275146,1379.493774 
	C1822.592041,1372.376099 1825.025269,1365.184326 1826.210205,1357.832397 
	C1829.079224,1340.031006 1831.468018,1322.143433 1833.641479,1304.240967 
	C1835.902222,1285.620239 1838.596924,1266.981812 1839.426392,1248.276733 
	C1840.327148,1227.967407 1842.237671,1207.642212 1840.465332,1187.217529 
	C1839.034790,1170.732666 1838.973511,1154.132935 1837.752563,1137.624878 
	C1836.857178,1125.518066 1835.130615,1113.469604 1833.651855,1101.410278 
	C1832.736328,1093.943848 1831.886719,1086.449463 1830.485107,1079.066772 
	C1827.974731,1065.842407 1825.522461,1052.577515 1822.204224,1039.543823 
	C1818.824341,1026.268066 1818.230469,1012.225464 1811.830444,999.780762 
	C1809.683594,995.606201 1806.826538,991.796753 1804.165894,985.972107 
	C1804.111206,982.320312 1804.009399,978.668579 1804.008911,975.016785 
	C1803.997925,888.987061 1804.000000,802.957336 1803.986328,716.927612 
	C1803.985840,713.942261 1804.034790,710.929504 1803.606689,707.995728 
	C1803.525146,707.437195 1801.303589,707.190796 1799.971924,707.008484 
	C1799.971924,707.008484 1800.175903,707.114441 1802.084595,707.318481 
	C1804.265991,701.741455 1799.190063,700.802368 1796.307373,699.002991 
	C1791.103760,695.755188 1785.402222,693.318115 1780.071655,690.258484 
	C1760.939697,679.277283 1741.921387,668.097961 1722.775391,657.141357 
	C1696.171265,641.916687 1669.472412,626.857727 1642.849609,611.665283 
	C1625.721924,601.891174 1608.648682,592.021606 1591.568237,582.164917 
	C1568.643188,568.935547 1545.762695,555.628845 1522.805420,542.455811 
	C1513.999390,537.402832 1505.034790,532.626221 1495.499268,526.558289 
	C1494.130859,525.143982 1492.758301,523.733643 1491.394775,522.314575 
	C1480.824829,511.314545 1469.193604,502.055725 1453.697510,498.987030 
	C1449.256958,498.107666 1444.867798,496.968262 1440.145020,494.745819 
	C1436.500610,492.706024 1432.835815,490.701569 1429.214844,488.621063 
	C1389.458618,465.778412 1349.709351,442.923828 1309.399048,418.832275 
	C1306.352905,414.558838 1303.350708,410.253265 1300.246338,406.022491 
	C1297.921875,402.854492 1296.040894,398.951416 1292.962158,396.821838 
	C1283.063110,389.974274 1271.493286,386.972015 1259.748657,385.928375 
	C1253.558350,385.378326 1247.555542,385.263611 1240.960815,381.365753 
	C1235.575195,378.173218 1230.222778,374.923035 1224.798706,371.797302 
	C1180.199463,346.096130 1135.610596,320.376770 1090.970825,294.746216 
	C1055.834229,274.572113 1020.662231,254.458481 985.389526,234.524139 
	C982.743896,233.028976 979.162781,233.189041 974.472534,232.246597 
	C970.760559,233.335678 966.670715,233.758438 963.394714,235.616318 
	C928.549011,255.378586 893.838928,275.380035 859.077637,295.291321 
	C841.106934,305.584930 823.069580,315.762756 805.132629,326.114807 
	C786.614075,336.802551 768.165833,347.612610 749.752380,358.480194 
	C748.774353,359.057373 748.405396,360.666534 747.926270,361.892120 
	C747.926270,361.892120 747.867493,361.702454 746.688171,360.435883 
	C737.958069,365.479156 729.198120,370.472687 720.554932,375.660828 
	C719.867920,376.073212 719.989624,377.833069 719.223267,378.983521 
	C718.872559,379.257416 718.848694,379.556854 719.166748,378.078766 
	C713.427368,378.452393 708.362671,379.996155 705.925232,385.908844 
	C705.925232,385.908844 705.876282,385.721832 704.593018,384.699493 
	C699.715698,386.883606 694.494812,388.582581 691.930054,393.888000 
	C691.930054,393.888000 691.874390,393.697662 690.751221,392.393616 
	C685.803955,395.489929 680.856689,398.586212 675.787659,401.721649 
	C675.787659,401.721649 675.721436,401.831055 674.287292,401.426941 
	C665.938354,406.037537 657.570984,410.615662 649.273865,415.317657 
	C648.578308,415.711853 648.354797,416.938934 647.895325,417.866150 
	C647.895325,417.866150 647.807251,417.855743 646.325256,417.615112 
	C638.381165,421.995605 630.411499,426.331390 622.541992,430.841980 
	C621.917236,431.200104 621.986877,432.769806 621.907166,433.871063 
	C621.907166,433.871063 621.859863,433.679352 620.736633,432.335266 
	C615.791138,435.457031 610.845703,438.578827 605.799072,441.739868 
	C605.799072,441.739868 605.739197,441.830322 604.249878,441.373627 
	C600.808105,443.304382 597.272339,445.095154 594.006104,447.287445 
	C593.373962,447.711761 593.794800,449.704895 593.221252,450.991272 
	C592.873291,451.264008 592.850342,451.561340 593.164429,450.069122 
	C592.553894,449.856506 591.747986,449.278351 591.361572,449.484924 
	C582.523926,454.208893 573.719299,458.995758 564.996155,463.925934 
	C564.745544,464.067596 565.449768,465.898560 565.201599,466.978821 
	C564.862854,467.260010 564.846619,467.558289 565.412170,465.919830 
	C558.206116,464.469391 554.442627,469.853638 549.819885,473.758484 
	C549.819885,473.758484 549.758728,473.841064 548.311890,473.429474 
	C541.758911,476.928619 535.119995,480.279480 528.695679,484.000824 
	C526.176758,485.459900 524.138672,487.749023 521.757690,489.707672 
	C521.757690,489.707672 521.690552,489.822021 520.208618,489.331696 
	C516.650574,491.325531 513.017639,493.205170 509.614624,495.435577 
	C509.100250,495.772705 509.656647,497.743530 509.209961,498.987091 
	C508.867310,499.265198 508.848877,499.562897 509.408997,497.908844 
	C503.052734,497.985046 499.952118,499.526154 493.766174,505.683563 
	C493.766174,505.683563 493.694977,505.762756 492.413330,504.880981 
	C488.245056,507.848694 484.076782,510.816406 479.890656,513.869568 
	C479.890656,513.869568 479.803680,513.862122 478.445038,513.594299 
	C476.254974,515.045044 474.064880,516.495789 470.421387,518.110352 
	C467.033752,520.026978 463.647400,521.945862 460.258301,523.859863 
	C428.413574,541.844299 396.489044,559.689270 364.743439,577.847046 
	C325.267944,600.426147 286.003784,623.374756 246.528275,645.953857 
	C215.251053,663.843750 183.763016,681.364990 152.469574,699.226807 
	C149.866180,700.712769 148.034210,703.550171 145.852722,705.863220 
	C145.852722,705.863220 145.871552,705.785950 144.163605,706.379944 
	C143.994919,710.013611 143.680008,713.647156 143.678925,717.280884 
	C143.652420,805.321167 143.675140,893.361511 143.608444,981.401733 
	C143.605484,985.312134 142.843338,989.221985 141.364059,993.935547 
	C139.917755,996.476440 138.196838,998.902344 137.075470,1001.579346 
	C133.386505,1010.386047 128.676468,1019.005615 126.610878,1028.202881 
	C121.944664,1048.979736 116.080856,1069.559448 115.392998,1091.146851 
	C114.933029,1105.582397 111.971710,1119.960693 111.843079,1134.380005 
	C111.484978,1174.520386 111.075455,1214.667114 113.463806,1254.801392 
	C114.483253,1271.932373 115.116379,1288.954590 120.104347,1305.521362 
	C121.234932,1309.276367 121.651657,1313.252563 122.315628,1317.140747 
	C124.681656,1330.995972 126.876167,1344.882202 129.402512,1358.708008 
	C131.231461,1368.717041 139.017899,1375.578369 143.529938,1386.053101 
	C143.567230,1474.041870 143.598709,1562.030762 143.660706,1650.019531 
	C143.663513,1654.004395 143.941879,1657.989136 144.100494,1663.374634 
	C149.608719,1668.972534 156.569244,1671.967896 164.388779,1675.622070 
	C168.343018,1678.001099 172.254242,1680.455322 176.258881,1682.746216 
	C197.366501,1694.820435 218.497696,1706.853516 240.372406,1720.036133 
	C242.884598,1720.757202 245.396774,1721.478394 247.981918,1722.039185 
	C247.981918,1722.039185 247.830276,1722.128662 247.716415,1723.533325 
	C253.815552,1727.009644 259.914703,1730.485962 266.565613,1735.240234 
	C287.094696,1747.111694 307.584930,1759.051270 328.196472,1770.777710 
	C331.139648,1772.452026 334.670776,1773.093018 337.956299,1774.047729 
	C337.956299,1774.047729 337.815460,1774.137085 337.541687,1775.549194 
	C349.368469,1782.427368 361.182220,1789.328491 373.053558,1796.128906 
	C373.790863,1796.551147 374.981354,1796.182373 375.972748,1796.035645 
	C375.972748,1796.035645 375.834595,1796.084473 375.969238,1797.483521 
	C381.718445,1800.891968 386.654663,1805.979004 393.968719,1806.036743 
	C393.968719,1806.036743 393.837555,1806.122437 393.675629,1807.531006 
	C399.807373,1810.944702 405.939148,1814.358398 412.935150,1818.831787 
	C416.598602,1820.607178 420.262085,1822.382568 423.993958,1824.012085 
	C423.993958,1824.012085 423.869110,1824.113892 424.295166,1825.470093 
	C426.844391,1826.384644 429.393646,1827.299194 431.950989,1828.049438 
	C431.950989,1828.049438 431.817749,1828.145996 431.529205,1829.560913 
	C449.384674,1839.890747 467.230957,1850.236572 485.131561,1860.487549 
	C485.794159,1860.867188 486.986755,1860.321045 487.953339,1860.042847 
	C487.953339,1860.042847 487.816193,1860.134155 487.414551,1861.565308 
	C487.785706,1862.095581 488.036743,1862.842529 488.545471,1863.124512 
	C507.038361,1873.374146 525.555176,1883.580688 544.615479,1895.063110 
	C548.583130,1897.428955 552.523865,1899.841431 556.522949,1902.152832 
	C578.132507,1914.643677 599.735962,1927.145386 621.386230,1939.565430 
	C629.664062,1944.314209 638.026733,1948.918945 646.431702,1953.438721 
	C648.119934,1954.346680 650.723572,1956.402710 650.954407,1952.565796 
	C650.954407,1952.565796 651.277466,1952.991821 651.277466,1952.991821 
	C651.277466,1952.991821 651.810547,1952.959229 650.559509,1954.227173 
	C654.268738,1958.085938 658.131470,1961.686401 663.986023,1962.022339 
	C663.986023,1962.022339 663.903381,1962.167969 664.272583,1963.510986 
	C668.916016,1966.061401 673.559448,1968.611816 679.321472,1971.206909 
	C679.523804,1970.893188 679.726074,1970.579590 679.945435,1970.104980 
	C679.945435,1970.104980 679.784363,1970.122314 679.230103,1971.566528 
	C682.790466,1973.114380 686.350830,1974.662109 689.919861,1976.013062 
	C689.919861,1976.013062 689.828918,1976.187988 689.460205,1977.576416 
	C694.351807,1980.239502 699.243408,1982.902710 705.165833,1986.471436 
	C731.443115,2001.649658 757.720337,2016.827881 784.608521,2033.258789 
	C786.704895,2034.228638 788.893066,2035.039917 790.883789,2036.192139 
	C817.273682,2051.466797 843.635864,2066.789307 871.293152,2082.625244 
	C872.165588,2082.488281 873.038086,2082.351318 873.963623,2082.047363 
	C873.963623,2082.047363 873.812744,2082.136963 873.415344,2083.538574 
	C874.037842,2084.284912 874.512268,2085.297852 875.304749,2085.738770 
	C893.505676,2095.867676 911.741272,2105.933838 930.523865,2117.285400 
	C942.244934,2124.000488 954.019531,2130.624756 965.664917,2137.468506 
	C971.659302,2140.991455 977.271667,2141.063721 983.184265,2137.266846 
	C989.021057,2133.518799 995.138306,2130.210449 1001.073730,2126.612305 
	C1008.056458,2122.378906 1014.976013,2118.041748 1023.258301,2113.284424 
	C1029.353882,2110.237549 1036.466309,2108.722168 1040.019653,2102.029785 
	C1040.019653,2102.029785 1040.002930,2102.175049 1041.522583,2102.505371 
	C1042.181274,2102.474609 1042.967773,2102.669922 1043.479980,2102.380371 
	C1056.293945,2095.129639 1069.165771,2087.974121 1081.815918,2080.446289 
	C1085.592773,2078.198730 1088.734619,2074.884521 1092.023560,2072.031494 
	C1092.023560,2072.031494 1092.013672,2072.177734 1093.533203,2072.481201 
	C1105.674438,2065.600830 1117.815674,2058.720215 1131.243286,2051.257568 
	C1145.325317,2043.327026 1159.491943,2035.541504 1173.453979,2027.405151 
	C1180.537842,2023.277222 1187.253052,2018.516846 1194.009399,2014.005981 
	C1194.009399,2014.005981 1194.020508,2014.136108 1195.489624,2013.968140 
	C1201.363770,2010.673340 1207.333618,2007.535156 1213.078735,2004.028809 
	C1216.942139,2001.670776 1220.487915,1998.792114 1224.044434,1996.021729 
	C1224.044434,1996.021729 1224.087158,1996.197876 1225.557739,1996.587891 
	C1237.671387,1989.595947 1249.785034,1982.604126 1263.187744,1975.070679 
	C1276.150269,1967.446411 1289.112793,1959.822266 1302.138672,1952.150879 
	C1302.138672,1952.150879 1302.208008,1952.113037 1303.459351,1952.451904 
	C1304.426270,1951.688110 1305.393311,1950.924438 1307.568359,1950.013306 
	C1309.087891,1948.807373 1310.607422,1947.601440 1313.520142,1945.895020 
	C1325.233765,1939.364746 1336.960571,1932.858032 1348.658081,1926.298828 
	C1366.678467,1916.194092 1384.797119,1906.256714 1402.643066,1895.851807 
	C1413.323120,1889.624756 1423.563110,1882.642822 1435.477295,1875.959961 
	C1455.876709,1864.386475 1476.287720,1852.833008 1496.634399,1841.167236 
	C1497.460938,1840.693481 1497.680664,1839.161255 1498.045410,1838.048218 
	C1498.045410,1838.048218 1498.050537,1838.204224 1499.520264,1838.695801 
	C1505.656738,1835.045410 1511.793335,1831.395020 1519.270630,1827.235596 
	C1527.544312,1822.675781 1535.901245,1818.258301 1544.053345,1813.490479 
	C1547.634399,1811.396118 1550.798096,1808.588135 1554.019531,1806.031982 
	C1554.019531,1806.031982 1554.043701,1806.180176 1555.386353,1806.476807 
	C1556.297974,1805.708740 1557.209595,1804.940674 1558.004883,1804.000000 
	C1558.004883,1804.000000 1558.137695,1804.161133 1559.532227,1804.301270 
	C1559.759277,1803.589844 1559.986328,1802.878540 1560.049927,1802.086426 
	C1560.049927,1802.086426 1560.102905,1802.260864 1561.334229,1803.263672 
	C1562.274292,1802.237793 1563.214355,1801.211914 1563.973877,1800.077393 
	C1563.973877,1800.077393 1564.100952,1800.245239 1565.286743,1801.181396 
	C1566.237183,1800.174194 1567.187622,1799.166870 1568.019531,1797.999634 
	C1568.019531,1797.999634 1568.123779,1798.161621 1569.929321,1797.998047 
	C1570.004883,1796.974365 1570.080444,1795.950806 1570.697998,1794.985718 
	C1571.102173,1794.732666 1571.156616,1794.419434 1570.784302,1795.837036 
	C1573.229736,1795.292114 1575.953979,1795.260254 1578.070679,1794.110229 
	C1585.904541,1789.853638 1593.516602,1785.191040 1601.250488,1780.748169 
	C1627.457520,1765.692871 1653.708862,1750.714722 1679.865967,1735.573364 
	C1683.510498,1733.463623 1686.721802,1730.605591 1690.009644,1728.012573 
	C1690.009644,1728.012573 1690.065308,1728.150024 1691.526489,1728.043945 
	C1699.959229,1723.409058 1708.435181,1718.849609 1716.782959,1714.066406 
	C1718.196533,1713.256836 1719.058838,1711.485107 1720.036743,1710.026001 
	C1720.036743,1710.026001 1720.093262,1710.209229 1721.534424,1710.712646 
	C1727.660034,1707.045044 1733.785767,1703.377441 1741.242432,1699.229858 
	C1747.265991,1696.092163 1754.528076,1694.833008 1758.023315,1688.035400 
	C1758.023315,1688.035400 1758.012329,1688.181030 1759.510498,1688.479980 
	C1764.613770,1686.998413 1769.739746,1685.551147 1772.009644,1680.018433 
	C1772.009644,1680.018433 1771.987305,1680.171509 1773.429077,1680.038452 
	C1776.546631,1680.276978 1779.037720,1679.435913 1780.000000,1676.000000 
	C1780.000000,1676.000000 1780.109497,1676.161133 1781.470459,1676.175049 
	C1781.719849,1675.503296 1781.969238,1674.831543 1782.057495,1674.109375 
z"/>
<path fill="#FDFDFD" opacity="1.000000" stroke="none" 
	d="
M1804.294067,987.820435 
	C1806.826538,991.796753 1809.683594,995.606201 1811.830444,999.780762 
	C1818.230469,1012.225464 1818.824341,1026.268066 1822.204224,1039.543823 
	C1825.522461,1052.577515 1827.974731,1065.842407 1830.485107,1079.066772 
	C1831.886719,1086.449463 1832.736328,1093.943848 1833.651855,1101.410278 
	C1835.130615,1113.469604 1836.857178,1125.518066 1837.752563,1137.624878 
	C1838.973511,1154.132935 1839.034790,1170.732666 1840.465332,1187.217529 
	C1842.237671,1207.642212 1840.327148,1227.967407 1839.426392,1248.276733 
	C1838.596924,1266.981812 1835.902222,1285.620239 1833.641479,1304.240967 
	C1831.468018,1322.143433 1829.079224,1340.031006 1826.210205,1357.832397 
	C1825.025269,1365.184326 1822.592041,1372.376099 1820.275146,1379.493774 
	C1817.552979,1387.856812 1810.208008,1392.676392 1803.370850,1399.330078 
	C1801.664795,1399.975098 1801.150269,1400.072144 1800.573120,1399.352295 
	C1800.510376,1393.955078 1800.510376,1389.374634 1800.510376,1384.794312 
	C1799.859009,1384.516113 1799.207764,1384.237793 1798.556396,1383.959595 
	C1764.827881,1445.573730 1715.982300,1492.237793 1656.408569,1528.423218 
	C1656.408569,1544.480103 1656.143066,1560.116455 1656.541748,1575.735962 
	C1656.697144,1581.824097 1654.667969,1585.274414 1649.344482,1588.307983 
	C1620.419312,1604.790039 1591.747925,1621.716309 1562.931519,1638.390381 
	C1380.241333,1744.101685 1197.537354,1849.789185 1014.832458,1955.475220 
	C1001.888977,1962.962280 988.901428,1970.373047 975.928040,1977.822998 
	C747.122437,1846.156982 518.636292,1714.674927 290.068146,1583.145630 
	C290.068146,1564.693848 290.068146,1546.725220 290.068146,1528.324219 
	C230.580933,1494.164673 183.636215,1447.560669 150.137756,1386.897705 
	C148.534988,1385.427490 147.011734,1384.654419 144.987183,1383.941772 
	C144.156097,1384.069824 143.826294,1384.137207 143.496506,1384.204712 
	C139.017899,1375.578369 131.231461,1368.717041 129.402512,1358.708008 
	C126.876167,1344.882202 124.681656,1330.995972 122.315628,1317.140747 
	C121.651657,1313.252563 121.234932,1309.276367 120.104347,1305.521362 
	C115.116379,1288.954590 114.483253,1271.932373 113.463806,1254.801392 
	C111.075455,1214.667114 111.484978,1174.520386 111.843079,1134.380005 
	C111.971710,1119.960693 114.933029,1105.582397 115.392998,1091.146851 
	C116.080856,1069.559448 121.944664,1048.979736 126.610878,1028.202881 
	C128.676468,1019.005615 133.386505,1010.386047 137.075470,1001.579346 
	C138.196838,998.902344 139.917755,996.476440 142.715088,993.807251 
	C144.623566,993.813477 145.181030,993.948059 146.428284,994.081665 
	C148.087845,992.737854 149.057617,991.395142 150.223923,989.386414 
	C184.349884,929.170776 232.154449,883.283813 290.503754,847.429443 
	C290.503754,826.907349 290.503754,806.677490 290.503754,786.167786 
	C518.702576,654.804321 746.534729,523.651917 974.540222,392.399689 
	C977.433838,394.030304 980.331421,395.628571 983.196472,397.282928 
	C1022.687500,420.085510 1062.216309,442.823090 1101.604004,465.802856 
	C1106.158691,468.460175 1109.441772,468.787506 1114.245361,465.982361 
	C1155.631470,441.814972 1197.222290,417.998108 1238.727051,394.033508 
	C1240.890503,392.784363 1242.827637,391.143219 1245.048584,389.557037 
	C1243.689697,388.057190 1242.812622,387.089264 1241.953613,385.488525 
	C1241.967407,384.013489 1241.963257,383.171356 1241.958984,382.329193 
	C1247.555542,385.263611 1253.558350,385.378326 1259.748657,385.928375 
	C1271.493286,386.972015 1283.063110,389.974274 1292.962158,396.821838 
	C1296.040894,398.951416 1297.921875,402.854492 1300.246338,406.022491 
	C1303.350708,410.253265 1306.352905,414.558838 1309.318848,419.946411 
	C1308.088257,421.415527 1306.938110,421.770569 1305.072754,421.903564 
	C1301.429565,419.571564 1298.687378,418.941132 1295.220093,421.132568 
	C1289.318115,424.862854 1283.041748,427.995239 1276.985107,431.487274 
	C1107.361694,529.286255 937.745605,627.097778 768.134766,724.918640 
	C764.730225,726.882141 761.404785,728.982849 758.258179,730.888916 
	C758.258179,1085.481689 758.258179,1439.395386 758.258179,1793.683472 
	C806.010071,1821.300781 853.689941,1848.876465 902.810669,1877.285400 
	C902.810669,1677.162598 902.810669,1478.984375 902.810669,1279.730103 
	C953.692383,1279.730103 1003.780334,1279.730103 1054.919312,1279.730103 
	C1043.878174,1233.151733 1041.476685,1187.189697 1046.498901,1139.640137 
	C998.029175,1139.640137 950.612793,1139.640137 903.305359,1139.640137 
	C902.910889,1137.506714 902.579895,1136.551514 902.579529,1135.596069 
	C902.533630,1028.941528 902.545166,922.286804 902.381592,815.632446 
	C902.374329,810.893311 904.139099,808.424255 908.040710,806.229065 
	C921.970886,798.391296 935.726013,790.243042 949.569824,782.251160 
	C1085.690674,703.670532 1221.804321,625.077087 1357.950928,546.541016 
	C1383.897827,531.573486 1409.980469,516.841248 1436.824219,501.855103 
	C1438.583740,499.789215 1439.519409,497.868652 1440.455078,495.948090 
	C1444.867798,496.968262 1449.256958,498.107666 1453.697510,498.987030 
	C1469.193604,502.055725 1480.824829,511.314545 1491.394775,522.314575 
	C1492.758301,523.733643 1494.130859,525.143982 1495.677734,528.080933 
	C1495.780640,530.232910 1495.704956,530.862183 1494.909424,531.193970 
	C1490.089233,528.276978 1487.251587,531.504883 1484.252808,533.230896 
	C1442.438477,557.297546 1400.663940,581.432922 1358.893311,605.575134 
	C1357.008423,606.664490 1355.252930,607.977356 1352.235718,609.985901 
	C1454.291016,669.081116 1555.244019,727.538208 1656.463989,786.149719 
	C1656.463989,789.534180 1656.463013,792.500854 1656.464111,795.467590 
	C1656.469604,810.454285 1656.589966,825.442322 1656.410645,840.426819 
	C1656.357910,844.844116 1657.312378,848.131531 1661.599976,850.171814 
	C1664.282227,851.448242 1666.674438,853.341187 1669.175659,854.989685 
	C1715.329712,885.408875 1754.680786,922.712463 1784.824829,969.324219 
	C1789.562622,976.649963 1794.242432,984.013123 1799.368896,992.014343 
	C1800.015747,990.068665 1800.317261,989.161499 1801.235229,988.214355 
	C1802.665771,988.056396 1803.479858,987.938416 1804.294067,987.820435 
M1590.553955,1559.019897 
	C1559.748901,1568.754150 1528.642578,1576.797729 1496.387817,1580.605835 
	C1456.693848,1585.292236 1417.217773,1584.401611 1378.077148,1577.336304 
	C1294.259766,1562.206665 1221.626343,1524.520020 1159.520752,1466.349731 
	C1158.038940,1464.961914 1156.182739,1463.973755 1154.059326,1462.490479 
	C1151.918701,1494.879395 1153.022095,1805.729370 1155.489746,1814.515869 
	C1159.668701,1812.291260 1163.770386,1810.263184 1167.723755,1807.978516 
	C1194.244873,1792.652466 1220.730225,1777.265137 1247.234619,1761.910156 
	C1312.340820,1724.191772 1377.462158,1686.499268 1442.556152,1648.759521 
	C1492.387329,1619.868530 1542.185913,1590.921143 1593.286865,1561.647217 
	C1595.392456,1560.242676 1597.498169,1558.838135 1599.603760,1557.433472 
	C1599.237915,1556.831543 1598.872070,1556.229614 1598.506104,1555.627563 
	C1596.371216,1556.567261 1594.236328,1557.506958 1590.553955,1559.019897 
M1783.527588,1296.364014 
	C1804.081543,1229.789307 1806.352661,1162.624756 1787.811157,1095.419067 
	C1760.531616,996.541504 1700.925537,923.277954 1608.824219,877.974976 
	C1529.463013,838.938599 1445.891113,833.020386 1360.500977,853.411621 
	C1281.559692,872.262939 1216.588257,914.002075 1167.737915,978.923767 
	C1108.619385,1057.491943 1086.034302,1146.194946 1100.449585,1243.535034 
	C1110.655762,1312.452271 1140.570557,1372.400879 1189.483887,1421.974976 
	C1249.841309,1483.147705 1323.241577,1518.775757 1408.786865,1528.389893 
	C1467.258545,1534.961426 1524.565552,1529.452637 1579.661011,1507.926880 
	C1679.387329,1468.963379 1748.585815,1400.196411 1783.527588,1296.364014 
M491.001770,1140.023804 
	C478.509949,1140.269043 465.971008,1139.465088 453.780396,1140.502075 
	C451.342682,1154.344727 452.009094,1250.162964 454.751404,1258.010010 
	C492.528809,1258.010010 530.701477,1258.010010 569.399963,1258.010010 
	C569.399963,1298.958252 569.399963,1338.817261 569.399963,1378.417358 
	C568.592957,1379.113770 568.151978,1379.645264 567.588257,1379.949463 
	C566.419617,1380.580078 565.209778,1381.150269 563.975403,1381.640991 
	C526.255859,1396.635986 487.419556,1401.078125 447.394440,1393.769531 
	C405.788361,1386.172119 369.847992,1367.336304 340.809021,1336.777344 
	C305.043091,1299.139160 289.321503,1252.792603 286.126923,1201.714844 
	C284.361816,1173.492188 288.448883,1145.915527 296.350769,1118.867798 
	C322.703796,1028.662598 398.725494,975.523438 486.771729,974.478149 
	C523.051758,974.047363 557.416382,982.629700 588.872070,1001.257202 
	C599.738525,1007.692017 610.287109,1014.663574 622.065674,1022.072266 
	C649.534058,989.706177 677.238220,957.062256 704.827271,924.553955 
	C703.692810,922.781433 703.315674,921.814941 702.628601,921.188232 
	C700.414917,919.169373 698.176880,917.156982 695.789856,915.351440 
	C641.200867,874.061584 579.857178,850.451843 511.473724,846.313354 
	C458.629059,843.115295 407.235291,850.339783 357.831421,870.238831 
	C308.786438,889.993347 265.909515,918.736877 230.963684,958.416199 
	C175.113785,1021.831116 149.942047,1097.360596 146.237228,1180.719360 
	C144.885590,1211.131592 148.835678,1241.247925 156.051834,1270.774536 
	C181.699905,1375.720093 242.768066,1452.059937 341.159912,1497.594727 
	C388.868866,1519.673828 439.714447,1527.563354 491.818512,1527.292114 
	C510.028290,1527.197388 528.350525,1524.775024 546.398376,1521.976807 
	C601.209900,1513.479248 651.421875,1493.086670 697.376587,1462.008545 
	C702.465698,1458.566895 703.967346,1454.750244 703.956543,1448.852783 
	C703.773132,1349.199585 703.802612,1249.546021 703.756226,1149.892456 
	C703.754822,1146.979980 703.439453,1144.067749 703.204590,1140.019897 
	C632.767029,1140.019897 562.884094,1140.019897 491.001770,1140.023804 
M954.011841,861.098816 
	C954.011841,936.967102 954.011841,1012.835388 954.011841,1089.327759 
	C989.187744,1089.327759 1023.035828,1089.327759 1057.449829,1089.327759 
	C1058.351196,1086.892822 1059.405884,1084.500610 1060.133179,1082.012817 
	C1083.757568,1001.205383 1128.248779,934.026611 1194.082275,881.807434 
	C1265.510254,825.150757 1347.528198,796.281433 1438.730713,793.770142 
	C1470.430664,792.897156 1502.057739,794.125549 1533.212280,800.237000 
	C1553.099121,804.138123 1572.661499,809.691711 1592.374390,814.483459 
	C1594.927612,815.104004 1597.511108,815.599670 1600.080566,816.153198 
	C1598.078613,812.852417 1595.707153,811.092224 1593.184082,809.585815 
	C1571.449341,796.609192 1549.728760,783.607666 1527.924438,770.748535 
	C1483.456909,744.523560 1438.966797,718.336853 1394.433105,692.224060 
	C1366.564209,675.882751 1338.562988,659.766907 1310.709717,643.399109 
	C1305.473633,640.322083 1301.008057,639.054443 1295.073364,642.518677 
	C1255.954346,665.353516 1216.611206,687.804199 1177.374146,710.437439 
	C1108.708984,750.046082 1039.964600,789.519531 971.477600,829.434143 
	C950.492310,841.664490 954.323242,834.768982 954.011841,861.098816 
M953.819641,1467.000000 
	C953.826477,1611.625610 953.833191,1756.251221 953.840210,1900.876831 
	C953.840332,1902.876099 953.530457,1904.941772 953.935791,1906.855591 
	C954.318909,1908.664795 955.033691,1910.772339 956.326294,1911.962402 
	C966.709473,1921.520020 973.516113,1922.106323 985.703613,1914.831665 
	C986.275574,1914.490356 986.810242,1914.085938 987.385803,1913.751587 
	C1021.361206,1894.005859 1055.207275,1874.030884 1089.428711,1854.721191 
	C1096.229614,1850.883667 1098.542480,1846.786621 1098.529785,1839.105225 
	C1098.286499,1692.480835 1098.308472,1545.855957 1098.387329,1399.231201 
	C1098.390625,1393.052490 1097.039062,1387.624634 1094.245239,1382.088013 
	C1087.048340,1367.825195 1079.896606,1353.490234 1073.817139,1338.734985 
	C1071.050049,1332.019287 1067.668335,1329.790649 1060.608398,1329.860107 
	C1027.954468,1330.181152 995.295349,1329.973267 962.638184,1330.014038 
	C960.072754,1330.017212 957.507812,1330.474365 953.816101,1330.828613 
	C953.816101,1375.887207 953.816101,1420.443604 953.819641,1467.000000 
M578.627258,679.617004 
	C528.721985,708.404236 478.815979,737.190063 428.911835,765.979248 
	C405.259186,779.624084 381.591370,793.242981 357.983887,806.965576 
	C355.173187,808.599426 351.491364,809.572510 350.034454,814.634888 
	C474.274811,777.582336 592.239319,787.415405 704.120056,855.670288 
	C704.612000,843.664124 705.357056,832.779785 705.449646,821.889771 
	C705.761353,785.235962 706.054077,748.578857 705.828064,711.926270 
	C705.783203,704.648010 708.062439,700.509705 714.354919,696.984741 
	C739.049072,683.151184 763.491516,668.867188 787.991089,654.687805 
	C867.832092,608.479248 947.663452,562.253967 1027.479614,516.002502 
	C1036.568237,510.735840 1045.537231,505.262817 1056.147217,498.940765 
	C1027.763794,482.608856 1001.022949,467.222229 973.896667,451.613739 
	C842.339050,527.504211 711.120972,603.198853 578.627258,679.617004 
M705.731018,1672.996582 
	C705.731018,1623.562988 705.731018,1574.129272 705.731018,1523.107056 
	C649.846497,1553.899414 592.375549,1573.226074 530.433105,1578.605835 
	C468.347382,1583.998047 408.181641,1574.456299 349.044708,1555.734009 
	C348.804535,1556.468506 348.564331,1557.203003 348.324158,1557.937500 
	C466.540283,1625.727051 584.756409,1693.516602 704.047791,1761.922729 
	C704.624695,1732.027954 705.175049,1703.511108 705.731018,1672.996582 
M347.657318,814.998901 
	C346.958954,814.890808 346.260590,814.782715 345.562225,814.674622 
	C346.010406,815.017273 346.458588,815.359924 347.657318,814.998901 
M1602.883179,1555.274048 
	C1602.883179,1555.274048 1603.113770,1554.876587 1603.113770,1554.876587 
	C1603.113770,1554.876587 1602.591675,1554.941040 1602.883179,1555.274048 
M345.166504,1554.754517 
	C345.166504,1554.754517 344.940796,1555.104492 344.940796,1555.104492 
	C344.940796,1555.104492 345.476990,1555.054443 345.166504,1554.754517 
z"/>
<path fill="#3A434A" opacity="1.000000" stroke="none" 
	d="
M150.217300,1387.594604 
	C183.636215,1447.560669 230.580933,1494.164673 290.068146,1528.324219 
	C290.068146,1546.725220 290.068146,1564.693848 290.068146,1583.145630 
	C518.636292,1714.674927 747.122437,1846.156982 975.928040,1977.822998 
	C988.901428,1970.373047 1001.888977,1962.962280 1014.832458,1955.475220 
	C1197.537354,1849.789185 1380.241333,1744.101685 1562.931519,1638.390381 
	C1591.747925,1621.716309 1620.419312,1604.790039 1649.344482,1588.307983 
	C1654.667969,1585.274414 1656.697144,1581.824097 1656.541748,1575.735962 
	C1656.143066,1560.116455 1656.408569,1544.480103 1656.408569,1528.423218 
	C1715.982300,1492.237793 1764.827881,1445.573730 1798.556396,1383.959595 
	C1799.207764,1384.237793 1799.859009,1384.516113 1800.510376,1384.794312 
	C1800.510376,1389.374634 1800.510376,1393.955078 1800.323242,1400.108154 
	C1800.090942,1469.555054 1800.041992,1537.429321 1800.002930,1605.303467 
	C1799.993286,1621.939453 1799.920532,1638.576538 1800.121216,1655.210205 
	C1800.152832,1657.822876 1801.491211,1660.419556 1802.225464,1663.023682 
	C1802.225464,1663.023682 1802.166870,1663.073242 1801.334229,1662.655029 
	C1799.732910,1663.559204 1798.964355,1664.881714 1798.195801,1666.204346 
	C1798.195801,1666.204346 1798.092407,1666.188965 1797.679199,1665.482910 
	C1793.017212,1666.466797 1788.172485,1667.274902 1786.164185,1672.279785 
	C1786.164185,1672.279785 1785.993896,1672.081787 1785.431396,1671.791504 
	C1783.942017,1672.426025 1783.015137,1673.350708 1782.088135,1674.275391 
	C1782.088135,1674.275391 1782.057495,1674.109375 1781.379150,1673.998901 
	C1780.503784,1674.645996 1780.306641,1675.403564 1780.109497,1676.161133 
	C1780.109497,1676.161133 1780.000000,1676.000000 1779.500000,1675.491699 
	C1776.662476,1676.712891 1774.324951,1678.442139 1771.987305,1680.171509 
	C1771.987305,1680.171509 1772.009644,1680.018433 1771.371338,1679.821777 
	C1766.492676,1682.477051 1762.252441,1685.328979 1758.012329,1688.180908 
	C1758.012329,1688.181030 1758.023315,1688.035400 1757.370117,1687.869629 
	C1751.118652,1691.022705 1745.520508,1694.341309 1739.204590,1697.736572 
	C1732.355835,1701.945190 1726.224609,1706.077271 1720.093262,1710.209229 
	C1720.093262,1710.209229 1720.036743,1710.026001 1719.405884,1709.783203 
	C1709.877075,1714.529541 1700.943237,1719.456665 1692.130249,1724.591187 
	C1691.100220,1725.191162 1690.737427,1726.935913 1690.065430,1728.150024 
	C1690.065308,1728.150024 1690.009644,1728.012573 1689.409424,1727.590820 
	C1684.094116,1729.593262 1679.277222,1731.839600 1674.680298,1734.470093 
	C1640.049561,1754.286133 1605.462158,1774.177856 1570.861328,1794.046021 
	C1571.156616,1794.419434 1571.102173,1794.732666 1569.765381,1795.337402 
	C1568.596436,1796.513306 1568.360107,1797.337524 1568.123779,1798.161621 
	C1568.123779,1798.161621 1568.019531,1797.999634 1567.404297,1797.690186 
	C1565.893066,1798.335693 1564.996948,1799.290405 1564.100952,1800.245239 
	C1564.100952,1800.245239 1563.973877,1800.077393 1563.395630,1799.837891 
	C1561.912598,1800.485962 1561.007812,1801.373535 1560.103027,1802.260986 
	C1560.102905,1802.260864 1560.049927,1802.086426 1559.368164,1801.963257 
	C1558.503418,1802.613770 1558.320557,1803.387451 1558.137695,1804.161133 
	C1558.137695,1804.161133 1558.004883,1804.000000 1557.434448,1803.537109 
	C1555.923950,1804.109619 1554.983887,1805.144897 1554.043701,1806.180176 
	C1554.043701,1806.180176 1554.019531,1806.031982 1553.369019,1805.777222 
	C1541.140259,1812.329590 1529.561890,1819.136841 1517.264648,1825.941406 
	C1510.380615,1830.027344 1504.215576,1834.115723 1498.050537,1838.204102 
	C1498.050537,1838.204224 1498.045410,1838.048218 1497.394775,1837.857544 
	C1474.860107,1850.345093 1452.976196,1863.023438 1430.421631,1875.811279 
	C1408.763672,1887.922363 1387.719727,1899.826294 1366.806030,1911.954468 
	C1348.486084,1922.578369 1330.312012,1933.454224 1311.389648,1944.331421 
	C1307.953613,1946.176270 1305.201172,1947.908447 1301.931641,1949.943848 
	C1301.679077,1950.868896 1301.943604,1951.490967 1302.208008,1952.113037 
	C1302.208008,1952.113037 1302.138672,1952.150879 1301.588379,1951.489502 
	C1287.959229,1958.246216 1274.880371,1965.664429 1261.110596,1973.339600 
	C1249.534790,1979.806519 1238.618408,1985.962524 1227.801147,1992.288330 
	C1226.310791,1993.159912 1225.312988,1994.873901 1224.087158,1996.197754 
	C1224.087158,1996.197876 1224.044434,1996.021729 1223.399658,1995.811279 
	C1213.909180,2000.527222 1205.024902,2005.386963 1196.266846,2010.464722 
	C1195.175415,2011.097412 1194.752930,2012.884155 1194.020508,2014.136108 
	C1194.020508,2014.136108 1194.009399,2014.005981 1193.345825,2013.731445 
	C1171.704834,2025.383667 1150.727417,2037.310303 1129.053833,2049.443359 
	C1118.071899,2055.512451 1107.742676,2061.301514 1097.536377,2067.299805 
	C1095.457886,2068.521484 1093.842529,2070.531250 1092.013672,2072.177734 
	C1092.013672,2072.177734 1092.023560,2072.031494 1091.362305,2071.901855 
	C1074.269653,2081.117676 1057.829834,2090.448730 1041.435303,2099.858643 
	C1040.742798,2100.255859 1040.470825,2101.386230 1040.002930,2102.175049 
	C1040.002930,2102.175049 1040.019653,2102.029785 1039.362549,2101.913086 
	C1033.120117,2105.124268 1027.534790,2108.452637 1021.229553,2111.832520 
	C1005.104736,2120.712646 989.699707,2129.540771 974.505371,2138.248291 
	C960.056885,2130.053955 946.008545,2122.086426 931.434082,2113.688477 
	C913.981873,2103.478271 897.080261,2093.655029 880.094543,2083.979492 
	C878.249329,2082.928467 875.918396,2082.730713 873.812744,2082.136963 
	C873.812744,2082.136963 873.963623,2082.047363 873.995239,2081.454102 
	C872.860107,2080.190918 871.693420,2079.520996 870.038940,2078.418457 
	C863.822021,2074.666992 858.111572,2071.315186 852.360229,2068.034912 
	C829.640869,2055.077148 806.908691,2042.141602 783.782959,2028.697998 
	C756.982178,2013.045898 730.579651,1997.893555 703.735596,1982.307739 
	C698.805664,1979.978882 694.317322,1978.083496 689.828918,1976.187988 
	C689.828918,1976.187988 689.919861,1976.013062 689.955322,1975.392212 
	C686.588623,1973.221680 683.186523,1971.671997 679.784363,1970.122314 
	C679.784363,1970.122314 679.945435,1970.104980 679.979614,1969.594971 
	C679.343750,1968.719604 678.673767,1968.354370 677.476562,1967.523071 
	C673.906616,1965.308594 670.941223,1963.395996 667.776978,1961.905762 
	C666.753967,1961.423828 665.209412,1962.049072 663.903381,1962.167969 
	C663.903381,1962.167969 663.986023,1962.022339 664.410950,1961.454346 
	C660.494141,1958.243896 656.152344,1955.601562 651.810547,1952.959229 
	C651.810547,1952.959229 651.277466,1952.991821 651.277466,1952.991821 
	C651.277466,1952.991821 650.954407,1952.565796 650.384399,1951.989014 
	C616.839600,1932.503174 583.880493,1913.566406 550.851868,1894.751587 
	C548.829346,1893.599365 546.257935,1893.410522 543.451111,1892.266113 
	C540.721863,1889.855713 538.707031,1887.568970 536.208191,1886.112915 
	C521.660645,1877.636353 507.017883,1869.322266 492.345001,1861.063965 
	C491.066040,1860.344238 489.336456,1860.425171 487.816193,1860.134155 
	C487.816193,1860.134155 487.953339,1860.042847 487.922668,1859.416748 
	C470.440430,1848.660278 453.002045,1838.506958 435.502380,1828.460449 
	C434.533356,1827.904053 433.057587,1828.230591 431.817749,1828.145996 
	C431.817749,1828.145996 431.950989,1828.049438 431.908020,1827.370361 
	C429.199768,1825.832275 426.534424,1824.973022 423.869110,1824.113892 
	C423.869110,1824.113892 423.993958,1824.012085 424.271820,1823.411499 
	C420.362457,1820.562866 416.175232,1818.314819 411.751282,1815.420654 
	C405.622223,1811.890503 399.729889,1809.006470 393.837585,1806.122314 
	C393.837555,1806.122437 393.968719,1806.036743 393.937012,1805.399902 
	C387.881714,1801.870239 381.858154,1798.977295 375.834595,1796.084473 
	C375.834595,1796.084473 375.972748,1796.035645 376.021667,1795.391357 
	C364.831940,1788.116211 353.619324,1781.440308 342.317596,1774.918823 
	C341.078949,1774.204102 339.328522,1774.376221 337.815460,1774.137085 
	C337.815460,1774.137085 337.956299,1774.047729 337.959412,1773.417358 
	C317.214233,1760.660034 296.483398,1748.503052 275.698792,1736.438721 
	C272.615753,1734.649170 269.278625,1733.297485 265.772491,1731.136230 
	C259.600677,1727.729126 253.715485,1724.928833 247.830276,1722.128662 
	C247.830276,1722.128662 247.981918,1722.039185 248.056366,1721.438232 
	C245.404083,1719.269043 242.677368,1717.700806 239.424774,1715.702271 
	C224.316711,1706.807861 209.777390,1698.268799 195.137726,1689.905396 
	C184.828629,1684.016113 174.383102,1678.365723 163.447586,1672.174927 
	C157.393845,1668.478638 151.891006,1665.216187 146.347748,1661.020264 
	C146.298203,1629.431030 146.299377,1598.775269 146.277740,1568.119385 
	C146.235413,1508.143799 146.180344,1448.168213 146.739899,1387.765991 
	C148.305252,1387.424438 149.261276,1387.509521 150.217300,1387.594604 
z"/>
<path fill="#3B444B" opacity="1.000000" stroke="none" 
	d="
M1241.935669,386.121368 
	C1242.812622,387.089264 1243.689697,388.057190 1245.048584,389.557037 
	C1242.827637,391.143219 1240.890503,392.784363 1238.727051,394.033508 
	C1197.222290,417.998108 1155.631470,441.814972 1114.245361,465.982361 
	C1109.441772,468.787506 1106.158691,468.460175 1101.604004,465.802856 
	C1062.216309,442.823090 1022.687500,420.085510 983.196472,397.282928 
	C980.331421,395.628571 977.433838,394.030304 974.540222,392.399689 
	C746.534729,523.651917 518.702576,654.804321 290.503754,786.167786 
	C290.503754,806.677490 290.503754,826.907349 290.503754,847.429443 
	C232.154449,883.283813 184.349884,929.170776 149.553848,989.589233 
	C147.816788,990.261475 146.946320,990.064880 146.193481,988.945435 
	C146.324066,898.198608 146.343567,808.374634 146.329605,718.550598 
	C146.328934,714.295715 146.031036,710.040833 145.871552,705.785950 
	C145.871552,705.785950 145.852722,705.863220 146.424423,706.396240 
	C150.517914,705.075684 154.100967,703.329163 157.552505,701.352966 
	C238.574966,654.963013 319.596405,608.571167 400.585968,562.123779 
	C425.072266,548.080994 449.462921,533.871399 474.602936,519.570312 
	C476.825989,517.571167 481.407104,518.225586 479.803680,513.862122 
	C479.803680,513.862122 479.890656,513.869568 480.340271,514.605591 
	C485.089417,513.117432 489.424530,510.956177 493.632874,508.571106 
	C494.050079,508.334625 493.692810,506.731537 493.695007,505.762756 
	C493.694977,505.762756 493.766174,505.683563 494.208771,506.468903 
	C499.485809,504.796204 504.320251,502.338196 509.154694,499.880157 
	C508.848877,499.562897 508.867310,499.265198 510.232849,498.836182 
	C514.547363,496.870209 517.921570,495.182037 521.062988,493.136383 
	C521.715088,492.711731 521.503906,490.961395 521.690552,489.822021 
	C521.690552,489.822021 521.757690,489.707672 522.201782,490.503876 
	C531.650513,486.464203 540.672729,481.660217 549.606873,476.697571 
	C550.049744,476.451569 549.725708,474.824860 549.758728,473.841064 
	C549.758728,473.841064 549.819885,473.758484 550.269897,474.545837 
	C555.530945,472.846680 560.341919,470.360138 565.152893,467.873627 
	C564.846619,467.558289 564.862854,467.260010 566.221680,466.855835 
	C575.878601,461.783020 584.515442,456.833130 593.152344,451.883270 
	C592.850342,451.561340 592.873291,451.264008 594.234375,450.814087 
	C598.698486,448.681396 602.202576,446.809052 605.540833,444.676910 
	C606.018250,444.371979 605.692993,442.810364 605.739258,441.830322 
	C605.739197,441.830322 605.799072,441.739868 606.252014,442.508179 
	C612.329102,440.981476 618.461121,439.488525 621.859863,433.679352 
	C621.859863,433.679352 621.907166,433.871063 622.517761,434.146423 
	C631.058838,430.067444 639.024048,425.773285 646.862488,421.258942 
	C647.589539,420.840179 647.511475,419.023407 647.807251,417.855743 
	C647.807251,417.855743 647.895325,417.866150 648.324158,418.608002 
	C657.690369,414.482117 666.645752,409.646362 675.513184,404.654449 
	C675.968262,404.398285 675.669373,402.802917 675.721436,401.831055 
	C675.721436,401.831055 675.787659,401.721649 676.235229,402.505707 
	C682.417480,401.154907 688.482849,399.543671 691.874390,393.697662 
	C691.874390,393.697662 691.930054,393.888000 692.534058,394.162903 
	C697.384155,391.532440 701.630188,388.627136 705.876282,385.721802 
	C705.876282,385.721832 705.925232,385.908844 706.549744,386.167480 
	C711.166748,384.244659 715.159180,382.063232 719.151672,379.881836 
	C718.848694,379.556854 718.872559,379.257416 720.229004,378.817078 
	C729.253418,374.149536 737.306885,369.708282 745.251648,365.080353 
	C746.392395,364.415833 747.008606,362.850769 747.867493,361.702454 
	C747.867493,361.702454 747.926270,361.892120 748.541016,362.156769 
	C750.950867,361.581696 752.816467,360.865143 754.530701,359.884033 
	C786.235657,341.738922 817.882263,323.491699 849.622986,305.409515 
	C891.745483,281.413025 933.938354,257.540039 976.481812,234.297470 
	C977.703125,235.514297 978.523682,236.082428 979.386841,236.576096 
	C1057.609375,281.314728 1135.826782,326.062592 1214.072266,370.761017 
	C1223.280151,376.021149 1232.644043,381.007904 1241.935669,386.121368 
z"/>
<path fill="#3B434A" opacity="1.000000" stroke="none" 
	d="
M1800.618896,988.254395 
	C1800.317261,989.161499 1800.015747,990.068665 1799.368896,992.014343 
	C1794.242432,984.013123 1789.562622,976.649963 1784.824829,969.324219 
	C1754.680786,922.712463 1715.329712,885.408875 1669.175659,854.989685 
	C1666.674438,853.341187 1664.282227,851.448242 1661.599976,850.171814 
	C1657.312378,848.131531 1656.357910,844.844116 1656.410645,840.426819 
	C1656.589966,825.442322 1656.469604,810.454285 1656.464111,795.467590 
	C1656.463013,792.500854 1656.463989,789.534180 1656.463989,786.149719 
	C1555.244019,727.538208 1454.291016,669.081116 1352.235718,609.985901 
	C1355.252930,607.977356 1357.008423,606.664490 1358.893311,605.575134 
	C1400.663940,581.432922 1442.438477,557.297546 1484.252808,533.230896 
	C1487.251587,531.504883 1490.089233,528.276978 1495.319824,531.652222 
	C1556.463867,566.887207 1616.488770,601.347107 1676.487671,635.852173 
	C1717.735718,659.573792 1758.947754,683.358154 1800.175903,707.114441 
	C1800.175903,707.114441 1799.971924,707.008484 1800.005859,707.921631 
	C1800.032593,798.003723 1800.017700,887.172791 1800.043823,976.341797 
	C1800.044922,980.312744 1800.418579,984.283508 1800.618896,988.254395 
z"/>
<path fill="#D6D7D8" opacity="1.000000" stroke="none" 
	d="
M1801.130249,707.216431 
	C1758.947754,683.358154 1717.735718,659.573792 1676.487671,635.852173 
	C1616.488770,601.347107 1556.463867,566.887207 1496.039795,531.949768 
	C1495.704956,530.862183 1495.780640,530.232910 1495.999268,528.663574 
	C1505.034790,532.626221 1513.999390,537.402832 1522.805420,542.455811 
	C1545.762695,555.628845 1568.643188,568.935547 1591.568237,582.164917 
	C1608.648682,592.021606 1625.721924,601.891174 1642.849609,611.665283 
	C1669.472412,626.857727 1696.171265,641.916687 1722.775391,657.141357 
	C1741.921387,668.097961 1760.939697,679.277283 1780.071655,690.258484 
	C1785.402222,693.318115 1791.103760,695.755188 1796.307373,699.002991 
	C1799.190063,700.802368 1804.265991,701.741455 1801.130249,707.216431 
z"/>
<path fill="#D3D4D5" opacity="1.000000" stroke="none" 
	d="
M473.897369,519.738220 
	C449.462921,533.871399 425.072266,548.080994 400.585968,562.123779 
	C319.596405,608.571167 238.574966,654.963013 157.552505,701.352966 
	C154.100967,703.329163 150.517914,705.075684 146.419968,706.344421 
	C148.034210,703.550171 149.866180,700.712769 152.469574,699.226807 
	C183.763016,681.364990 215.251053,663.843750 246.528275,645.953857 
	C286.003784,623.374756 325.267944,600.426147 364.743439,577.847046 
	C396.489044,559.689270 428.413574,541.844299 460.258301,523.859863 
	C463.647400,521.945862 467.033752,520.026978 471.576263,518.213928 
	C473.282745,518.657410 473.671478,519.130981 473.897369,519.738220 
z"/>
<path fill="#D6D7D8" opacity="1.000000" stroke="none" 
	d="
M1241.953613,385.488525 
	C1232.644043,381.007904 1223.280151,376.021149 1214.072266,370.761017 
	C1135.826782,326.062592 1057.609375,281.314728 979.386841,236.576096 
	C978.523682,236.082428 977.703125,235.514297 976.459290,234.127777 
	C976.055908,233.274628 976.016541,232.579651 976.016541,232.579651 
	C979.162781,233.189041 982.743896,233.028976 985.389526,234.524139 
	C1020.662231,254.458481 1055.834229,274.572113 1090.970825,294.746216 
	C1135.610596,320.376770 1180.199463,346.096130 1224.798706,371.797302 
	C1230.222778,374.923035 1235.575195,378.173218 1241.459961,381.847473 
	C1241.963257,383.171356 1241.967407,384.013489 1241.953613,385.488525 
z"/>
<path fill="#D2D3D4" opacity="1.000000" stroke="none" 
	d="
M975.244507,232.413116 
	C976.016541,232.579651 976.055908,233.274628 976.078430,233.444305 
	C933.938354,257.540039 891.745483,281.413025 849.622986,305.409515 
	C817.882263,323.491699 786.235657,341.738922 754.530701,359.884033 
	C752.816467,360.865143 750.950867,361.581696 748.454346,362.108337 
	C748.405396,360.666534 748.774353,359.057373 749.752380,358.480194 
	C768.165833,347.612610 786.614075,336.802551 805.132629,326.114807 
	C823.069580,315.762756 841.106934,305.584930 859.077637,295.291321 
	C893.838928,275.380035 928.549011,255.378586 963.394714,235.616318 
	C966.670715,233.758438 970.760559,233.335678 975.244507,232.413116 
z"/>
<path fill="#BFC0C0" opacity="1.000000" stroke="none" 
	d="
M1801.235229,988.214355 
	C1800.418579,984.283508 1800.044922,980.312744 1800.043823,976.341797 
	C1800.017700,887.172791 1800.032593,798.003723 1800.054688,707.817566 
	C1801.303589,707.190796 1803.525146,707.437195 1803.606689,707.995728 
	C1804.034790,710.929504 1803.985840,713.942261 1803.986328,716.927612 
	C1804.000000,802.957336 1803.997925,888.987061 1804.008911,975.016785 
	C1804.009399,978.668579 1804.111206,982.320312 1804.229980,986.896240 
	C1803.479858,987.938416 1802.665771,988.056396 1801.235229,988.214355 
z"/>
<path fill="#C2C3C4" opacity="1.000000" stroke="none" 
	d="
M1802.940430,1662.448730 
	C1801.491211,1660.419556 1800.152832,1657.822876 1800.121216,1655.210205 
	C1799.920532,1638.576538 1799.993286,1621.939453 1800.002930,1605.303467 
	C1800.041992,1537.429321 1800.090942,1469.555054 1800.385986,1400.925049 
	C1801.150269,1400.072144 1801.664795,1399.975098 1802.964722,1399.896484 
	C1803.826660,1432.244263 1803.946777,1464.573608 1803.970337,1496.902832 
	C1804.007812,1548.567993 1803.987305,1600.233032 1803.968018,1651.898193 
	C1803.966797,1655.223389 1803.764282,1658.548706 1802.940430,1662.448730 
z"/>
<path fill="#D7D8D8" opacity="1.000000" stroke="none" 
	d="
M1440.300049,495.346954 
	C1439.519409,497.868652 1438.583740,499.789215 1437.070435,501.117798 
	C1434.181396,498.480957 1432.135010,495.979675 1429.518311,494.460327 
	C1394.766113,474.280945 1359.914185,454.273285 1325.138916,434.133301 
	C1318.572876,430.330566 1312.232422,426.138184 1305.787842,422.125610 
	C1306.938110,421.770569 1308.088257,421.415527 1309.598389,420.566528 
	C1349.709351,442.923828 1389.458618,465.778412 1429.214844,488.621063 
	C1432.835815,490.701569 1436.500610,492.706024 1440.300049,495.346954 
z"/>
<path fill="#C3C4C6" opacity="1.000000" stroke="none" 
	d="
M1312.073364,1944.218750 
	C1330.312012,1933.454224 1348.486084,1922.578369 1366.806030,1911.954468 
	C1387.719727,1899.826294 1408.763672,1887.922363 1431.148804,1875.904175 
	C1433.031494,1875.924927 1433.516113,1875.962524 1434.000854,1876.000122 
	C1423.563110,1882.642822 1413.323120,1889.624756 1402.643066,1895.851807 
	C1384.797119,1906.256714 1366.678467,1916.194092 1348.658081,1926.298828 
	C1336.960571,1932.858032 1325.233765,1939.364746 1312.805908,1945.601196 
	C1312.085449,1944.944336 1312.079346,1944.581421 1312.073364,1944.218750 
z"/>
<path fill="#C1C2C3" opacity="1.000000" stroke="none" 
	d="
M1570.822754,1794.941528 
	C1605.462158,1774.177856 1640.049561,1754.286133 1674.680298,1734.470093 
	C1679.277222,1731.839600 1684.094116,1729.593262 1689.471313,1727.631470 
	C1686.721802,1730.605591 1683.510498,1733.463623 1679.865967,1735.573364 
	C1653.708862,1750.714722 1627.457520,1765.692871 1601.250488,1780.748169 
	C1593.516602,1785.191040 1585.904541,1789.853638 1578.070679,1794.110229 
	C1575.953979,1795.260254 1573.229736,1795.292114 1570.822754,1794.941528 
z"/>
<path fill="#F3F5F6" opacity="1.000000" stroke="none" 
	d="
M145.017578,706.082947 
	C146.031036,710.040833 146.328934,714.295715 146.329605,718.550598 
	C146.343567,808.374634 146.324066,898.198608 146.041412,989.636780 
	C145.760651,992.194824 145.749573,993.138794 145.738495,994.082703 
	C145.181030,993.948059 144.623566,993.813477 143.250458,993.405518 
	C142.843338,989.221985 143.605484,985.312134 143.608444,981.401733 
	C143.675140,893.361511 143.652420,805.321167 143.678925,717.280884 
	C143.680008,713.647156 143.994919,710.013611 145.017578,706.082947 
z"/>
<path fill="#F1F2F4" opacity="1.000000" stroke="none" 
	d="
M146.130554,1388.192627 
	C146.180344,1448.168213 146.235413,1508.143799 146.277740,1568.119385 
	C146.299377,1598.775269 146.298203,1629.431030 145.773514,1661.009033 
	C144.857086,1661.945435 144.474487,1661.959717 144.091888,1661.973877 
	C143.941879,1657.989136 143.663513,1654.004395 143.660706,1650.019531 
	C143.598709,1562.030762 143.567230,1474.041870 143.513214,1385.128906 
	C143.826294,1384.137207 144.156097,1384.069824 145.055328,1384.668457 
	C145.793335,1386.287231 145.961929,1387.239868 146.130554,1388.192627 
z"/>
<path fill="#C6C7C8" opacity="1.000000" stroke="none" 
	d="
M543.941895,1892.773438 
	C546.257935,1893.410522 548.829346,1893.599365 550.851868,1894.751587 
	C583.880493,1913.566406 616.839600,1932.503174 650.480042,1951.740234 
	C650.723572,1956.402710 648.119934,1954.346680 646.431702,1953.438721 
	C638.026733,1948.918945 629.664062,1944.314209 621.386230,1939.565430 
	C599.735962,1927.145386 578.132507,1914.643677 556.522949,1902.152832 
	C552.523865,1899.841431 548.583130,1897.428955 544.338135,1894.169678 
	C544.060852,1893.276245 543.941895,1892.773438 543.941895,1892.773438 
z"/>
<path fill="#BEBFC0" opacity="1.000000" stroke="none" 
	d="
M931.960144,2114.118896 
	C946.008545,2122.086426 960.056885,2130.053955 974.505371,2138.248291 
	C989.699707,2129.540771 1005.104736,2120.712646 1021.222412,2112.325195 
	C1021.935059,2112.765869 1021.923035,2113.749756 1021.923035,2113.749756 
	C1014.976013,2118.041748 1008.056458,2122.378906 1001.073730,2126.612305 
	C995.138306,2130.210449 989.021057,2133.518799 983.184265,2137.266846 
	C977.271667,2141.063721 971.659302,2140.991455 965.664917,2137.468506 
	C954.019531,2130.624756 942.244934,2124.000488 930.680603,2116.451904 
	C931.389771,2115.251953 931.764038,2114.752197 931.960144,2114.118896 
z"/>
<path fill="#CBCCCD" opacity="1.000000" stroke="none" 
	d="
M784.181274,2029.197754 
	C806.908691,2042.141602 829.640869,2055.077148 852.360229,2068.034912 
	C858.111572,2071.315186 863.822021,2074.666992 869.889771,2079.228516 
	C870.153931,2081.013916 870.079468,2081.556885 870.004944,2082.099854 
	C843.635864,2066.789307 817.273682,2051.466797 790.883789,2036.192139 
	C788.893066,2035.039917 786.704895,2034.228638 784.354675,2031.930786 
	C784.127625,2030.134399 784.154480,2029.666138 784.181274,2029.197754 
z"/>
<path fill="#C1C2C3" opacity="1.000000" stroke="none" 
	d="
M783.782959,2028.697998 
	C784.154480,2029.666138 784.127625,2030.134399 784.049194,2031.304443 
	C757.720337,2016.827881 731.443115,2001.649658 704.675659,1985.312744 
	C704.182739,1983.682983 704.179993,1983.212036 704.177124,1982.741089 
	C730.579651,1997.893555 756.982178,2013.045898 783.782959,2028.697998 
z"/>
<path fill="#C8C9CA" opacity="1.000000" stroke="none" 
	d="
M163.998489,1672.608643 
	C174.383102,1678.365723 184.828629,1684.016113 195.137726,1689.905396 
	C209.777390,1698.268799 224.316711,1706.807861 239.356506,1716.395996 
	C239.749664,1717.980469 239.685211,1718.440674 239.620758,1718.900879 
	C218.497696,1706.853516 197.366501,1694.820435 176.258881,1682.746216 
	C172.254242,1680.455322 168.343018,1678.001099 164.168396,1674.562622 
	C163.947998,1673.503174 163.998489,1672.608643 163.998489,1672.608643 
z"/>
<path fill="#CBCCCD" opacity="1.000000" stroke="none" 
	d="
M266.059082,1731.743164 
	C269.278625,1733.297485 272.615753,1734.649170 275.698792,1736.438721 
	C296.483398,1748.503052 317.214233,1760.660034 337.946167,1773.499756 
	C334.670776,1773.093018 331.139648,1772.452026 328.196472,1770.777710 
	C307.584930,1759.051270 287.094696,1747.111694 266.311768,1734.046753 
	C266.058319,1732.483276 266.058716,1732.113159 266.059082,1731.743164 
z"/>
<path fill="#C2C3C4" opacity="1.000000" stroke="none" 
	d="
M1434.739014,1875.979980 
	C1433.516113,1875.962524 1433.031494,1875.924927 1431.819580,1875.794434 
	C1452.976196,1863.023438 1474.860107,1850.345093 1497.463623,1837.894531 
	C1497.680664,1839.161255 1497.460938,1840.693481 1496.634399,1841.167236 
	C1476.287720,1852.833008 1455.876709,1864.386475 1434.739014,1875.979980 
z"/>
<path fill="#BEBFC0" opacity="1.000000" stroke="none" 
	d="
M1129.750000,2049.237061 
	C1150.727417,2037.310303 1171.704834,2025.383667 1193.408447,2013.749634 
	C1187.253052,2018.516846 1180.537842,2023.277222 1173.453979,2027.405151 
	C1159.491943,2035.541504 1145.325317,2043.327026 1130.560059,2050.896973 
	C1129.834595,2050.103271 1129.792358,2049.670166 1129.750000,2049.237061 
z"/>
<path fill="#C3C3C5" opacity="1.000000" stroke="none" 
	d="
M931.434082,2113.688477 
	C931.764038,2114.752197 931.389771,2115.251953 930.403931,2115.815186 
	C911.741272,2105.933838 893.505676,2095.867676 875.304749,2085.738770 
	C874.512268,2085.297852 874.037842,2084.284912 873.614014,2082.837891 
	C875.918396,2082.730713 878.249329,2082.928467 880.094543,2083.979492 
	C897.080261,2093.655029 913.981873,2103.478271 931.434082,2113.688477 
z"/>
<path fill="#C3C3C5" opacity="1.000000" stroke="none" 
	d="
M431.673462,1828.853516 
	C433.057587,1828.230591 434.533356,1827.904053 435.502380,1828.460449 
	C453.002045,1838.506958 470.440430,1848.660278 487.912170,1859.498535 
	C486.986755,1860.321045 485.794159,1860.867188 485.131561,1860.487549 
	C467.230957,1850.236572 449.384674,1839.890747 431.673462,1828.853516 
z"/>
<path fill="#BEBFC0" opacity="1.000000" stroke="none" 
	d="
M543.451111,1892.266113 
	C543.941895,1892.773438 544.060852,1893.276245 544.064819,1893.534668 
	C525.555176,1883.580688 507.038361,1873.374146 488.545471,1863.124512 
	C488.036743,1862.842529 487.785706,1862.095581 487.615356,1860.849731 
	C489.336456,1860.425171 491.066040,1860.344238 492.345001,1861.063965 
	C507.017883,1869.322266 521.660645,1877.636353 536.208191,1886.112915 
	C538.707031,1887.568970 540.721863,1889.855713 543.451111,1892.266113 
z"/>
<path fill="#BFC0C0" opacity="1.000000" stroke="none" 
	d="
M1040.762695,2102.340332 
	C1040.470825,2101.386230 1040.742798,2100.255859 1041.435303,2099.858643 
	C1057.829834,2090.448730 1074.269653,2081.117676 1091.434326,2071.915527 
	C1088.734619,2074.884521 1085.592773,2078.198730 1081.815918,2080.446289 
	C1069.165771,2087.974121 1056.293945,2095.129639 1043.479980,2102.380371 
	C1042.967773,2102.669922 1042.181274,2102.474609 1040.762695,2102.340332 
z"/>
<path fill="#B4B5B6" opacity="1.000000" stroke="none" 
	d="
M1261.801514,1973.082520 
	C1274.880371,1965.664429 1287.959229,1958.246216 1301.556641,1951.513062 
	C1289.112793,1959.822266 1276.150269,1967.446411 1262.512207,1974.709229 
	C1261.824829,1973.926025 1261.813110,1973.504272 1261.801514,1973.082520 
z"/>
<path fill="#C6C7C8" opacity="1.000000" stroke="none" 
	d="
M337.678589,1774.843140 
	C339.328522,1774.376221 341.078949,1774.204102 342.317596,1774.918823 
	C353.619324,1781.440308 364.831940,1788.116211 376.015808,1795.464355 
	C374.981354,1796.182373 373.790863,1796.551147 373.053558,1796.128906 
	C361.182220,1789.328491 349.368469,1782.427368 337.678589,1774.843140 
z"/>
<path fill="#BEBFC0" opacity="1.000000" stroke="none" 
	d="
M1517.983643,1825.943970 
	C1529.561890,1819.136841 1541.140259,1812.329590 1553.434814,1805.813232 
	C1550.798096,1808.588135 1547.634399,1811.396118 1544.053345,1813.490479 
	C1535.901245,1818.258301 1527.544312,1822.675781 1518.600586,1827.039551 
	C1517.930542,1826.843506 1517.983643,1825.943970 1517.983643,1825.943970 
z"/>
<path fill="#C2C3C4" opacity="1.000000" stroke="none" 
	d="
M1129.053833,2049.443359 
	C1129.792358,2049.670166 1129.834595,2050.103271 1129.916870,2051.187988 
	C1117.815674,2058.720215 1105.674438,2065.600830 1092.773438,2072.329590 
	C1093.842529,2070.531250 1095.457886,2068.521484 1097.536377,2067.299805 
	C1107.742676,2061.301514 1118.071899,2055.512451 1129.053833,2049.443359 
z"/>
<path fill="#C1C2C3" opacity="1.000000" stroke="none" 
	d="
M1261.110596,1973.339600 
	C1261.813110,1973.504272 1261.824829,1973.926025 1261.867676,1974.979980 
	C1249.785034,1982.604126 1237.671387,1989.595947 1224.822388,1996.392822 
	C1225.312988,1994.873901 1226.310791,1993.159912 1227.801147,1992.288330 
	C1238.618408,1985.962524 1249.534790,1979.806519 1261.110596,1973.339600 
z"/>
<path fill="#D2D3D4" opacity="1.000000" stroke="none" 
	d="
M549.035278,473.635254 
	C549.725708,474.824860 550.049744,476.451569 549.606873,476.697571 
	C540.672729,481.660217 531.650513,486.464203 522.263733,490.480103 
	C524.138672,487.749023 526.176758,485.459900 528.695679,484.000824 
	C535.119995,480.279480 541.758911,476.928619 549.035278,473.635254 
z"/>
<path fill="#D2D3D4" opacity="1.000000" stroke="none" 
	d="
M675.004395,401.628998 
	C675.669373,402.802917 675.968262,404.398285 675.513184,404.654449 
	C666.645752,409.646362 657.690369,414.482117 648.332520,418.564453 
	C648.354797,416.938934 648.578308,415.711853 649.273865,415.317657 
	C657.570984,410.615662 665.938354,406.037537 675.004395,401.628998 
z"/>
<path fill="#BEBFC0" opacity="1.000000" stroke="none" 
	d="
M1194.755127,2014.052124 
	C1194.752930,2012.884155 1195.175415,2011.097412 1196.266846,2010.464722 
	C1205.024902,2005.386963 1213.909180,2000.527222 1223.465332,1995.873535 
	C1220.487915,1998.792114 1216.942139,2001.670776 1213.078735,2004.028809 
	C1207.333618,2007.535156 1201.363770,2010.673340 1194.755127,2014.052124 
z"/>
<path fill="#D2D3D4" opacity="1.000000" stroke="none" 
	d="
M593.158386,450.976196 
	C584.515442,456.833130 575.878601,461.783020 566.475220,466.837341 
	C565.449768,465.898560 564.745544,464.067596 564.996155,463.925934 
	C573.719299,458.995758 582.523926,454.208893 591.361572,449.484924 
	C591.747986,449.278351 592.553894,449.856506 593.158386,450.976196 
z"/>
<path fill="#C1C2C3" opacity="1.000000" stroke="none" 
	d="
M1690.795898,1728.096924 
	C1690.737427,1726.935913 1691.100220,1725.191162 1692.130249,1724.591187 
	C1700.943237,1719.456665 1709.877075,1714.529541 1719.475342,1709.849121 
	C1719.058838,1711.485107 1718.196533,1713.256836 1716.782959,1714.066406 
	C1708.435181,1718.849609 1699.959229,1723.409058 1690.795898,1728.096924 
z"/>
<path fill="#D2D3D4" opacity="1.000000" stroke="none" 
	d="
M647.066284,417.735413 
	C647.511475,419.023407 647.589539,420.840179 646.862488,421.258942 
	C639.024048,425.773285 631.058838,430.067444 622.431091,434.099121 
	C621.986877,432.769806 621.917236,431.200104 622.541992,430.841980 
	C630.411499,426.331390 638.381165,421.995605 647.066284,417.735413 
z"/>
<path fill="#D2D3D4" opacity="1.000000" stroke="none" 
	d="
M747.277832,361.069183 
	C747.008606,362.850769 746.392395,364.415833 745.251648,365.080353 
	C737.306885,369.708282 729.253418,374.149536 720.485107,378.808655 
	C719.989624,377.833069 719.867920,376.073212 720.554932,375.660828 
	C729.198120,370.472687 737.958069,365.479156 747.277832,361.069183 
z"/>
<path fill="#C8C9CA" opacity="1.000000" stroke="none" 
	d="
M1517.264648,1825.941406 
	C1517.983643,1825.943970 1517.930542,1826.843506 1517.930176,1827.294067 
	C1511.793335,1831.395020 1505.656738,1835.045410 1498.785400,1838.449951 
	C1504.215576,1834.115723 1510.380615,1830.027344 1517.264648,1825.941406 
z"/>
<path fill="#C3C3C5" opacity="1.000000" stroke="none" 
	d="
M265.772491,1731.136230 
	C266.058716,1732.113159 266.058319,1732.483276 266.035889,1733.407715 
	C259.914703,1730.485962 253.815552,1727.009644 247.773346,1722.831055 
	C253.715485,1724.928833 259.600677,1727.729126 265.772491,1731.136230 
z"/>
<path fill="#C6C7C8" opacity="1.000000" stroke="none" 
	d="
M1720.813843,1710.460938 
	C1726.224609,1706.077271 1732.355835,1701.945190 1739.199463,1698.249512 
	C1739.911743,1699.027222 1739.911621,1699.368530 1739.911377,1699.709839 
	C1733.785767,1703.377441 1727.660034,1707.045044 1720.813843,1710.460938 
z"/>
<path fill="#BEBFC0" opacity="1.000000" stroke="none" 
	d="
M1740.576904,1699.469849 
	C1739.911621,1699.368530 1739.911743,1699.027222 1739.916992,1698.172974 
	C1745.520508,1694.341309 1751.118652,1691.022705 1757.440552,1687.888916 
	C1754.528076,1694.833008 1747.265991,1696.092163 1740.576904,1699.469849 
z"/>
<path fill="#C5C6C8" opacity="1.000000" stroke="none" 
	d="
M163.447586,1672.174927 
	C163.998489,1672.608643 163.947998,1673.503174 163.897797,1673.948364 
	C156.569244,1671.967896 149.608719,1668.972534 144.096191,1662.674316 
	C144.474487,1661.959717 144.857086,1661.945435 145.813934,1661.942383 
	C151.891006,1665.216187 157.393845,1668.478638 163.447586,1672.174927 
z"/>
<path fill="#B8B9BA" opacity="1.000000" stroke="none" 
	d="
M1022.590698,2113.517090 
	C1021.923035,2113.749756 1021.935059,2112.765869 1021.942261,2112.273438 
	C1027.534790,2108.452637 1033.120117,2105.124268 1039.433960,2101.928711 
	C1036.466309,2108.722168 1029.353882,2110.237549 1022.590698,2113.517090 
z"/>
<path fill="#B8B9BA" opacity="1.000000" stroke="none" 
	d="
M393.756592,1806.826660 
	C399.729889,1809.006470 405.622223,1811.890503 411.800598,1815.845459 
	C412.086700,1816.916504 412.070892,1817.772217 412.070923,1817.772217 
	C405.939148,1814.358398 399.807373,1810.944702 393.756592,1806.826660 
z"/>
<path fill="#C2C3C4" opacity="1.000000" stroke="none" 
	d="
M375.901917,1796.783936 
	C381.858154,1798.977295 387.881714,1801.870239 393.928284,1805.477783 
	C386.654663,1805.979004 381.718445,1800.891968 375.901917,1796.783936 
z"/>
<path fill="#D2D3D4" opacity="1.000000" stroke="none" 
	d="
M621.298218,433.007324 
	C618.461121,439.488525 612.329102,440.981476 606.302612,442.488556 
	C610.845703,438.578827 615.791138,435.457031 621.298218,433.007324 
z"/>
<path fill="#D2D3D4" opacity="1.000000" stroke="none" 
	d="
M493.054169,505.321869 
	C493.692810,506.731537 494.050079,508.334625 493.632874,508.571106 
	C489.424530,510.956177 485.089417,513.117432 480.349213,514.562866 
	C484.076782,510.816406 488.245056,507.848694 493.054169,505.321869 
z"/>
<path fill="#D2D3D4" opacity="1.000000" stroke="none" 
	d="
M691.312805,393.045654 
	C688.482849,399.543671 682.417480,401.154907 676.296143,402.486145 
	C680.856689,398.586212 685.803955,395.489929 691.312805,393.045654 
z"/>
<path fill="#D2D3D4" opacity="1.000000" stroke="none" 
	d="
M509.281860,498.894501 
	C504.320251,502.338196 499.485809,504.796204 494.256500,506.445343 
	C499.952118,499.526154 503.052734,497.985046 509.281860,498.894501 
z"/>
<path fill="#B4B5B6" opacity="1.000000" stroke="none" 
	d="
M703.735596,1982.307739 
	C704.179993,1983.212036 704.182739,1983.682983 704.160217,1984.859863 
	C699.243408,1982.902710 694.351807,1980.239502 689.644531,1976.882202 
	C694.317322,1978.083496 698.805664,1979.978882 703.735596,1982.307739 
z"/>
<path fill="#D2D3D4" opacity="1.000000" stroke="none" 
	d="
M565.282532,466.896729 
	C560.341919,470.360138 555.530945,472.846680 550.318481,474.528931 
	C554.442627,469.853638 558.206116,464.469391 565.282532,466.896729 
z"/>
<path fill="#D2D3D4" opacity="1.000000" stroke="none" 
	d="
M719.159180,378.980286 
	C715.159180,382.063232 711.166748,384.244659 706.466919,386.117645 
	C708.362671,379.996155 713.427368,378.452393 719.159180,378.980286 
z"/>
<path fill="#D2D3D4" opacity="1.000000" stroke="none" 
	d="
M705.234619,385.210632 
	C701.630188,388.627136 697.384155,391.532440 692.448120,394.113525 
	C694.494812,388.582581 699.715698,386.883606 705.234619,385.210632 
z"/>
<path fill="#C6C7C8" opacity="1.000000" stroke="none" 
	d="
M664.088013,1962.839478 
	C665.209412,1962.049072 666.753967,1961.423828 667.776978,1961.905762 
	C670.941223,1963.395996 673.906616,1965.308594 677.506104,1968.317627 
	C678.109497,1970.106201 678.156128,1970.634277 678.202881,1971.162354 
	C673.559448,1968.611816 668.916016,1966.061401 664.088013,1962.839478 
z"/>
<path fill="#D2D3D4" opacity="1.000000" stroke="none" 
	d="
M604.994568,441.601990 
	C605.692993,442.810364 606.018250,444.371979 605.540833,444.676910 
	C602.202576,446.809052 598.698486,448.681396 594.488647,450.805603 
	C593.794800,449.704895 593.373962,447.711761 594.006104,447.287445 
	C597.272339,445.095154 600.808105,443.304382 604.994568,441.601990 
z"/>
<path fill="#D2D3D4" opacity="1.000000" stroke="none" 
	d="
M520.949585,489.576843 
	C521.503906,490.961395 521.715088,492.711731 521.062988,493.136383 
	C517.921570,495.182037 514.547363,496.870209 510.486755,498.821960 
	C509.656647,497.743530 509.100250,495.772705 509.614624,495.435577 
	C513.017639,493.205170 516.650574,491.325531 520.949585,489.576843 
z"/>
<path fill="#C6C7C8" opacity="1.000000" stroke="none" 
	d="
M651.185059,1953.593262 
	C656.152344,1955.601562 660.494141,1958.243896 664.350952,1961.512573 
	C658.131470,1961.686401 654.268738,1958.085938 651.185059,1953.593262 
z"/>
<path fill="#CBCCCD" opacity="1.000000" stroke="none" 
	d="
M412.503021,1818.302002 
	C412.070892,1817.772217 412.086700,1816.916504 412.037354,1816.491699 
	C416.175232,1818.314819 420.362457,1820.562866 424.237610,1823.484375 
	C420.262085,1822.382568 416.598602,1820.607178 412.503021,1818.302002 
z"/>
<path fill="#C8C9CA" opacity="1.000000" stroke="none" 
	d="
M1758.761475,1688.330444 
	C1762.252441,1685.328979 1766.492676,1682.477051 1771.447266,1679.835938 
	C1769.739746,1685.551147 1764.613770,1686.998413 1758.761475,1688.330444 
z"/>
<path fill="#C8C9CA" opacity="1.000000" stroke="none" 
	d="
M1786.803467,1672.807129 
	C1788.172485,1667.274902 1793.017212,1666.466797 1797.681885,1665.535034 
	C1794.546021,1668.640259 1790.994385,1670.987305 1786.803467,1672.807129 
z"/>
<path fill="#C5C6C8" opacity="1.000000" stroke="none" 
	d="
M679.507202,1970.844482 
	C683.186523,1971.671997 686.588623,1973.221680 689.950989,1975.490601 
	C686.350830,1974.662109 682.790466,1973.114380 679.507202,1970.844482 
z"/>
<path fill="#C3C3C5" opacity="1.000000" stroke="none" 
	d="
M239.996582,1719.468506 
	C239.685211,1718.440674 239.749664,1717.980469 239.882385,1716.826416 
	C242.677368,1717.700806 245.404083,1719.269043 248.019867,1721.518311 
	C245.396774,1721.478394 242.884598,1720.757202 239.996582,1719.468506 
z"/>
<path fill="#D2D3D4" opacity="1.000000" stroke="none" 
	d="
M474.602936,519.570312 
	C473.671478,519.130981 473.282745,518.657410 472.302979,518.132019 
	C474.064880,516.495789 476.254974,515.045044 479.124359,513.728210 
	C481.407104,518.225586 476.825989,517.571167 474.602936,519.570312 
z"/>
<path fill="#BEBFC0" opacity="1.000000" stroke="none" 
	d="
M1311.389648,1944.331299 
	C1312.079346,1944.581421 1312.085449,1944.944336 1312.109375,1945.851318 
	C1310.607422,1947.601440 1309.087891,1948.807373 1305.985840,1949.960938 
	C1303.751831,1949.819336 1303.100220,1949.729980 1302.448608,1949.640625 
	C1305.201172,1947.908447 1307.953613,1946.176270 1311.389648,1944.331299 
z"/>
<path fill="#CBCCCD" opacity="1.000000" stroke="none" 
	d="
M424.082153,1824.791992 
	C426.534424,1824.973022 429.199768,1825.832275 431.903992,1827.452637 
	C429.393646,1827.299194 426.844391,1826.384644 424.082153,1824.791992 
z"/>
<path fill="#C8C9CA" opacity="1.000000" stroke="none" 
	d="
M1772.708252,1680.104980 
	C1774.324951,1678.442139 1776.662476,1676.712891 1779.557373,1675.570923 
	C1779.037720,1679.435913 1776.546631,1680.276978 1772.708252,1680.104980 
z"/>
<path fill="#C3C3C5" opacity="1.000000" stroke="none" 
	d="
M870.649048,2082.362549 
	C870.079468,2081.556885 870.153931,2081.013916 870.377563,2079.661133 
	C871.693420,2079.520996 872.860107,2080.190918 873.968689,2081.537598 
	C873.038086,2082.351318 872.165588,2082.488281 870.649048,2082.362549 
z"/>
<path fill="#C1C2C3" opacity="1.000000" stroke="none" 
	d="
M1564.693848,1800.713379 
	C1564.996948,1799.290405 1565.893066,1798.335693 1567.463501,1797.770264 
	C1567.187622,1799.166870 1566.237183,1800.174194 1564.693848,1800.713379 
z"/>
<path fill="#B4B5B6" opacity="1.000000" stroke="none" 
	d="
M1301.931641,1949.943726 
	C1303.100220,1949.729980 1303.751831,1949.819336 1305.381836,1950.034668 
	C1305.393311,1950.924438 1304.426270,1951.688110 1302.833740,1952.282471 
	C1301.943604,1951.490967 1301.679077,1950.868896 1301.931641,1949.943726 
z"/>
<path fill="#C1C2C3" opacity="1.000000" stroke="none" 
	d="
M1554.715088,1806.328613 
	C1554.983887,1805.144897 1555.923950,1804.109619 1557.492554,1803.623291 
	C1557.209595,1804.940674 1556.297974,1805.708740 1554.715088,1806.328613 
z"/>
<path fill="#C1C2C3" opacity="1.000000" stroke="none" 
	d="
M1560.718628,1802.762329 
	C1561.007812,1801.373535 1561.912598,1800.485962 1563.485840,1799.892334 
	C1563.214355,1801.211914 1562.274292,1802.237793 1560.718628,1802.762329 
z"/>
<path fill="#C8C9CA" opacity="1.000000" stroke="none" 
	d="
M1782.700928,1674.868774 
	C1783.015137,1673.350708 1783.942017,1672.426025 1785.517578,1671.880737 
	C1785.215332,1673.327515 1784.264526,1674.394775 1782.700928,1674.868774 
z"/>
<path fill="#C8C9CA" opacity="1.000000" stroke="none" 
	d="
M1798.946777,1666.412598 
	C1798.964355,1664.881714 1799.732910,1663.559204 1801.327881,1662.692871 
	C1801.335449,1664.306274 1800.516602,1665.463623 1798.946777,1666.412598 
z"/>
<path fill="#C5C6C8" opacity="1.000000" stroke="none" 
	d="
M678.762146,1971.184570 
	C678.156128,1970.634277 678.109497,1970.106201 678.033325,1968.783691 
	C678.673767,1968.354370 679.343750,1968.719604 679.971069,1969.675537 
	C679.726074,1970.579590 679.523804,1970.893188 678.762146,1971.184570 
z"/>
<path fill="#C1C2C3" opacity="1.000000" stroke="none" 
	d="
M1558.834961,1804.231201 
	C1558.320557,1803.387451 1558.503418,1802.613770 1559.449829,1802.003662 
	C1559.986328,1802.878540 1559.759277,1803.589844 1558.834961,1804.231201 
z"/>
<path fill="#C1C2C3" opacity="1.000000" stroke="none" 
	d="
M1569.026611,1798.079834 
	C1568.360107,1797.337524 1568.596436,1796.513306 1569.494385,1795.308105 
	C1570.080444,1795.950806 1570.004883,1796.974365 1569.026611,1798.079834 
z"/>
<path fill="#C8C9CA" opacity="1.000000" stroke="none" 
	d="
M1780.790039,1676.168091 
	C1780.306641,1675.403564 1780.503784,1674.645996 1781.459717,1674.024170 
	C1781.969238,1674.831543 1781.719849,1675.503296 1780.790039,1676.168091 
z"/>
<path fill="#3A434A" opacity="1.000000" stroke="none" 
	d="
M1305.072754,421.903564 
	C1312.232422,426.138184 1318.572876,430.330566 1325.138916,434.133301 
	C1359.914185,454.273285 1394.766113,474.280945 1429.518311,494.460327 
	C1432.135010,495.979675 1434.181396,498.480957 1436.246582,501.263123 
	C1409.980469,516.841248 1383.897827,531.573486 1357.950928,546.541016 
	C1221.804321,625.077087 1085.690674,703.670532 949.569824,782.251160 
	C935.726013,790.243042 921.970886,798.391296 908.040710,806.229065 
	C904.139099,808.424255 902.374329,810.893311 902.381592,815.632446 
	C902.545166,922.286804 902.533630,1028.941528 902.579529,1135.596069 
	C902.579895,1136.551514 902.910889,1137.506714 903.305359,1139.640137 
	C950.612793,1139.640137 998.029175,1139.640137 1046.498901,1139.640137 
	C1041.476685,1187.189697 1043.878174,1233.151733 1054.919312,1279.730103 
	C1003.780334,1279.730103 953.692383,1279.730103 902.810669,1279.730103 
	C902.810669,1478.984375 902.810669,1677.162598 902.810669,1877.285400 
	C853.689941,1848.876465 806.010071,1821.300781 758.258179,1793.683472 
	C758.258179,1439.395386 758.258179,1085.481689 758.258179,730.888916 
	C761.404785,728.982849 764.730225,726.882141 768.134766,724.918640 
	C937.745605,627.097778 1107.361694,529.286255 1276.985107,431.487274 
	C1283.041748,427.995239 1289.318115,424.862854 1295.220093,421.132568 
	C1298.687378,418.941132 1301.429565,419.571564 1305.072754,421.903564 
z"/>
<path fill="#3A434A" opacity="1.000000" stroke="none" 
	d="
M1783.218628,1297.096191 
	C1748.585815,1400.196411 1679.387329,1468.963379 1579.661011,1507.926880 
	C1524.565552,1529.452637 1467.258545,1534.961426 1408.786865,1528.389893 
	C1323.241577,1518.775757 1249.841309,1483.147705 1189.483887,1421.974976 
	C1140.570557,1372.400879 1110.655762,1312.452271 1100.449585,1243.535034 
	C1086.034302,1146.194946 1108.619385,1057.491943 1167.737915,978.923767 
	C1216.588257,914.002075 1281.559692,872.262939 1360.500977,853.411621 
	C1445.891113,833.020386 1529.463013,838.938599 1608.824219,877.974976 
	C1700.925537,923.277954 1760.531616,996.541504 1787.811157,1095.419067 
	C1806.352661,1162.624756 1804.081543,1229.789307 1783.218628,1297.096191 
M1428.390503,973.857544 
	C1425.402100,974.077087 1422.388672,974.121399 1419.428833,974.541443 
	C1320.233765,988.618591 1245.122925,1068.900635 1236.475464,1171.231567 
	C1236.575439,1182.283447 1236.675293,1193.335449 1236.709229,1205.968994 
	C1237.069336,1208.603760 1237.440796,1211.237061 1237.787598,1213.873535 
	C1244.785522,1267.082764 1267.828125,1312.019775 1307.786133,1347.906616 
	C1342.584839,1379.159912 1383.539673,1396.497314 1431.787476,1400.636841 
	C1443.405640,1400.610962 1455.023926,1400.585083 1468.146484,1400.735962 
	C1473.449707,1400.228394 1478.814575,1400.074219 1484.046631,1399.159668 
	C1551.583252,1387.354492 1602.598022,1351.950195 1635.511353,1291.613281 
	C1650.328003,1264.451294 1659.458130,1235.352905 1661.140259,1202.729980 
	C1660.701538,1191.692749 1660.262695,1180.655640 1659.994385,1167.935181 
	C1658.631104,1158.753784 1658.062622,1149.369507 1655.780273,1140.422607 
	C1635.473633,1060.815430 1586.858032,1007.186707 1508.417480,981.487915 
	C1494.860962,977.046509 1480.900757,973.791321 1464.727661,973.802917 
	C1453.196777,971.753235 1441.676636,971.735840 1428.390503,973.857544 
z"/>
<path fill="#919397" opacity="1.000000" stroke="none" 
	d="
M492.001465,1140.021851 
	C562.884094,1140.019897 632.767029,1140.019897 703.204590,1140.019897 
	C703.439453,1144.067749 703.754822,1146.979980 703.756226,1149.892456 
	C703.802612,1249.546021 703.773132,1349.199585 703.956543,1448.852783 
	C703.967346,1454.750244 702.465698,1458.566895 697.376587,1462.008545 
	C651.421875,1493.086670 601.209900,1513.479248 546.398376,1521.976807 
	C528.350525,1524.775024 510.028290,1527.197388 491.818512,1527.292114 
	C439.714447,1527.563354 388.868866,1519.673828 341.159912,1497.594727 
	C242.768066,1452.059937 181.699905,1375.720093 156.051834,1270.774536 
	C148.835678,1241.247925 144.885590,1211.131592 146.237228,1180.719360 
	C149.942047,1097.360596 175.113785,1021.831116 230.963684,958.416199 
	C265.909515,918.736877 308.786438,889.993347 357.831421,870.238831 
	C407.235291,850.339783 458.629059,843.115295 511.473724,846.313354 
	C579.857178,850.451843 641.200867,874.061584 695.789856,915.351440 
	C698.176880,917.156982 700.414917,919.169373 702.628601,921.188232 
	C703.315674,921.814941 703.692810,922.781433 704.827271,924.553955 
	C677.238220,957.062256 649.534058,989.706177 622.065674,1022.072266 
	C610.287109,1014.663574 599.738525,1007.692017 588.872070,1001.257202 
	C557.416382,982.629700 523.051758,974.047363 486.771729,974.478149 
	C398.725494,975.523438 322.703796,1028.662598 296.350769,1118.867798 
	C288.448883,1145.915527 284.361816,1173.492188 286.126923,1201.714844 
	C289.321503,1252.792603 305.043091,1299.139160 340.809021,1336.777344 
	C369.847992,1367.336304 405.788361,1386.172119 447.394440,1393.769531 
	C487.419556,1401.078125 526.255859,1396.635986 563.975403,1381.640991 
	C565.209778,1381.150269 566.419617,1380.580078 567.588257,1379.949463 
	C568.151978,1379.645264 568.592957,1379.113770 569.399963,1378.417358 
	C569.399963,1338.817261 569.399963,1298.958252 569.399963,1258.010010 
	C530.701477,1258.010010 492.528809,1258.010010 454.751404,1258.010010 
	C452.009094,1250.162964 451.342682,1154.344727 453.780396,1140.502075 
	C465.971008,1139.465088 478.509949,1140.269043 492.001465,1140.021851 
z"/>
<path fill="#5BDDA1" opacity="1.000000" stroke="none" 
	d="
M954.010864,860.121704 
	C954.323242,834.768982 950.492310,841.664490 971.477600,829.434143 
	C1039.964600,789.519531 1108.708984,750.046082 1177.374146,710.437439 
	C1216.611206,687.804199 1255.954346,665.353516 1295.073364,642.518677 
	C1301.008057,639.054443 1305.473633,640.322083 1310.709717,643.399109 
	C1338.562988,659.766907 1366.564209,675.882751 1394.433105,692.224060 
	C1438.966797,718.336853 1483.456909,744.523560 1527.924438,770.748535 
	C1549.728760,783.607666 1571.449341,796.609192 1593.184082,809.585815 
	C1595.707153,811.092224 1598.078613,812.852417 1600.080566,816.153198 
	C1597.511108,815.599670 1594.927612,815.104004 1592.374390,814.483459 
	C1572.661499,809.691711 1553.099121,804.138123 1533.212280,800.237000 
	C1502.057739,794.125549 1470.430664,792.897156 1438.730713,793.770142 
	C1347.528198,796.281433 1265.510254,825.150757 1194.082275,881.807434 
	C1128.248779,934.026611 1083.757568,1001.205383 1060.133179,1082.012817 
	C1059.405884,1084.500610 1058.351196,1086.892822 1057.449829,1089.327759 
	C1023.035828,1089.327759 989.187744,1089.327759 954.011841,1089.327759 
	C954.011841,1012.835388 954.011841,936.967102 954.010864,860.121704 
z"/>
<path fill="#5BDCA1" opacity="1.000000" stroke="none" 
	d="
M953.817871,1466.000000 
	C953.816101,1420.443604 953.816101,1375.887207 953.816101,1330.828613 
	C957.507812,1330.474365 960.072754,1330.017212 962.638184,1330.014038 
	C995.295349,1329.973267 1027.954468,1330.181152 1060.608398,1329.860107 
	C1067.668335,1329.790649 1071.050049,1332.019287 1073.817139,1338.734985 
	C1079.896606,1353.490234 1087.048340,1367.825195 1094.245239,1382.088013 
	C1097.039062,1387.624634 1098.390625,1393.052490 1098.387329,1399.231201 
	C1098.308472,1545.855957 1098.286499,1692.480835 1098.529785,1839.105225 
	C1098.542480,1846.786621 1096.229614,1850.883667 1089.428711,1854.721191 
	C1055.207275,1874.030884 1021.361206,1894.005859 987.385803,1913.751587 
	C986.810242,1914.085938 986.275574,1914.490356 985.703613,1914.831665 
	C973.516113,1922.106323 966.709473,1921.520020 956.326294,1911.962402 
	C955.033691,1910.772339 954.318909,1908.664795 953.935791,1906.855591 
	C953.530457,1904.941772 953.840332,1902.876099 953.840210,1900.876831 
	C953.833191,1756.251221 953.826477,1611.625610 953.817871,1466.000000 
z"/>
<path fill="#929497" opacity="1.000000" stroke="none" 
	d="
M579.265076,679.255249 
	C711.120972,603.198853 842.339050,527.504211 973.896667,451.613739 
	C1001.022949,467.222229 1027.763794,482.608856 1056.147217,498.940765 
	C1045.537231,505.262817 1036.568237,510.735840 1027.479614,516.002502 
	C947.663452,562.253967 867.832092,608.479248 787.991089,654.687805 
	C763.491516,668.867188 739.049072,683.151184 714.354919,696.984741 
	C708.062439,700.509705 705.783203,704.648010 705.828064,711.926270 
	C706.054077,748.578857 705.761353,785.235962 705.449646,821.889771 
	C705.357056,832.779785 704.612000,843.664124 704.120056,855.670288 
	C592.239319,787.415405 474.274811,777.582336 350.034454,814.634888 
	C351.491364,809.572510 355.173187,808.599426 357.983887,806.965576 
	C381.591370,793.242981 405.259186,779.624084 428.911835,765.979248 
	C478.815979,737.190063 528.721985,708.404236 579.265076,679.255249 
z"/>
<path fill="#919396" opacity="1.000000" stroke="none" 
	d="
M1591.999146,1561.999023 
	C1542.185913,1590.921143 1492.387329,1619.868530 1442.556152,1648.759521 
	C1377.462158,1686.499268 1312.340820,1724.191772 1247.234619,1761.910156 
	C1220.730225,1777.265137 1194.244873,1792.652466 1167.723755,1807.978516 
	C1163.770386,1810.263184 1159.668701,1812.291260 1155.489746,1814.515869 
	C1153.022095,1805.729370 1151.918701,1494.879395 1154.059326,1462.490479 
	C1156.182739,1463.973755 1158.038940,1464.961914 1159.520752,1466.349731 
	C1221.626343,1524.520020 1294.259766,1562.206665 1378.077148,1577.336304 
	C1417.217773,1584.401611 1456.693848,1585.292236 1496.387817,1580.605835 
	C1528.642578,1576.797729 1559.748901,1568.754150 1591.287109,1559.623779 
	C1592.013306,1560.818237 1592.006226,1561.408691 1591.999146,1561.999023 
z"/>
<path fill="#929497" opacity="1.000000" stroke="none" 
	d="
M705.728149,1673.995483 
	C705.175049,1703.511108 704.624695,1732.027954 704.047791,1761.922729 
	C584.756409,1693.516602 466.540283,1625.727051 348.324158,1557.937500 
	C348.564331,1557.203003 348.804535,1556.468506 349.044708,1555.734009 
	C408.181641,1574.456299 468.347382,1583.998047 530.433105,1578.605835 
	C592.375549,1573.226074 649.846497,1553.899414 705.731018,1523.107056 
	C705.731018,1574.129272 705.731018,1623.562988 705.728149,1673.995483 
z"/>
<path fill="#B4B5B6" opacity="1.000000" stroke="none" 
	d="
M1592.643066,1561.823120 
	C1592.006226,1561.408691 1592.013306,1560.818237 1592.060913,1559.337158 
	C1594.236328,1557.506958 1596.371216,1556.567261 1598.506104,1555.627563 
	C1598.872070,1556.229614 1599.237915,1556.831543 1599.603760,1557.433472 
	C1597.498169,1558.838135 1595.392456,1560.242676 1592.643066,1561.823120 
z"/>
<path fill="#C5C6C8" opacity="1.000000" stroke="none" 
	d="
M146.739899,1387.765991 
	C145.961929,1387.239868 145.793335,1386.287231 145.556610,1384.607910 
	C147.011734,1384.654419 148.534988,1385.427490 150.137756,1386.897705 
	C149.261276,1387.509521 148.305252,1387.424438 146.739899,1387.765991 
z"/>
<path fill="#D3D4D5" opacity="1.000000" stroke="none" 
	d="
M146.428284,994.081665 
	C145.749573,993.138794 145.760651,992.194824 145.923798,990.559570 
	C146.946320,990.064880 147.816788,990.261475 149.357330,990.255249 
	C149.057617,991.395142 148.087845,992.737854 146.428284,994.081665 
z"/>
<path fill="#929497" opacity="1.000000" stroke="none" 
	d="
M347.282043,815.350708 
	C346.458588,815.359924 346.010406,815.017273 345.562225,814.674622 
	C346.260590,814.782715 346.958954,814.890808 347.282043,815.350708 
z"/>
<path fill="#B4B5B6" opacity="1.000000" stroke="none" 
	d="
M1602.737427,1555.107544 
	C1602.591675,1554.941040 1603.113770,1554.876587 1603.113770,1554.876587 
	C1603.113770,1554.876587 1602.883179,1555.274048 1602.737427,1555.107544 
z"/>
<path fill="#929497" opacity="1.000000" stroke="none" 
	d="
M345.321747,1554.904541 
	C345.476990,1555.054443 344.940796,1555.104492 344.940796,1555.104492 
	C344.940796,1555.104492 345.166504,1554.754517 345.321747,1554.904541 
z"/>
<path fill="#5EDCA3" opacity="1.000000" stroke="none" 
	d="
M1466.642090,1400.559204 
	C1455.023926,1400.585083 1443.405640,1400.610962 1431.098633,1399.466553 
	C1430.772949,1385.688721 1431.335815,1373.082764 1431.431396,1360.473267 
	C1431.499634,1351.462036 1431.166626,1351.211426 1422.366699,1349.663452 
	C1390.102295,1343.987793 1361.939941,1330.213745 1337.981689,1307.752319 
	C1313.575928,1284.871094 1296.974976,1257.519775 1289.577271,1224.776611 
	C1288.068726,1218.099365 1286.851929,1211.356079 1285.449097,1204.387329 
	C1268.584351,1204.387329 1252.679810,1204.387329 1236.775146,1204.387329 
	C1236.675293,1193.335449 1236.575439,1182.283447 1237.648682,1170.319214 
	C1254.323975,1169.406860 1269.826172,1169.406860 1285.443726,1169.406860 
	C1286.374512,1165.432983 1287.268311,1162.576782 1287.693237,1159.652344 
	C1291.353882,1134.456299 1301.082764,1111.832153 1316.193359,1091.410400 
	C1342.702148,1055.584595 1377.600220,1033.299438 1421.702515,1025.807495 
	C1429.959595,1024.404785 1431.426270,1022.968994 1431.275269,1014.818359 
	C1431.023315,1001.204834 1430.548950,987.595398 1430.168335,973.984253 
	C1441.676636,971.735840 1453.196777,971.753235 1465.573242,974.937012 
	C1466.418945,991.670654 1466.418945,1007.270203 1466.418945,1023.263733 
	C1549.872681,1037.382568 1597.489868,1086.924561 1612.815552,1169.618408 
	C1628.624756,1169.618408 1644.224365,1169.618408 1659.823975,1169.618408 
	C1660.262695,1180.655640 1660.701538,1191.692749 1659.702759,1203.427368 
	C1643.052734,1204.124756 1627.840210,1204.124756 1612.764282,1204.124756 
	C1598.096069,1287.756348 1549.662231,1336.448608 1467.314575,1351.723755 
	C1467.017334,1353.052368 1466.488281,1354.317261 1466.488647,1355.581909 
	C1466.494141,1370.574341 1466.578491,1385.566772 1466.642090,1400.559204 
M1552.374878,1108.711914 
	C1530.736938,1081.253296 1503.506714,1063.356812 1467.231323,1058.630737 
	C1466.687256,1067.353394 1466.186279,1075.384155 1465.646484,1084.037842 
	C1455.523560,1084.037842 1446.567139,1083.913208 1437.616577,1084.086548 
	C1432.562988,1084.184448 1430.252441,1082.076050 1430.356934,1077.003662 
	C1430.478271,1071.105347 1430.385254,1065.202393 1430.385254,1059.210327 
	C1371.792847,1064.304443 1321.754761,1124.220215 1323.082397,1168.989014 
	C1330.125244,1169.317261 1337.257080,1169.649658 1345.082886,1170.014404 
	C1345.657471,1181.692871 1346.077637,1192.439453 1344.665161,1203.572388 
	C1336.460815,1204.004028 1329.367065,1204.377197 1322.353271,1204.746094 
	C1323.495117,1260.624146 1383.658203,1314.374023 1429.925293,1314.501831 
	C1430.341187,1306.726196 1430.759644,1298.905029 1431.202026,1290.633423 
	C1443.246948,1290.633423 1454.327637,1290.633423 1466.718018,1290.633423 
	C1466.718018,1299.183472 1466.718018,1306.984863 1466.718018,1314.791382 
	C1522.258789,1313.121704 1576.772095,1253.643433 1574.499390,1203.874023 
	C1567.413574,1203.874023 1560.246460,1203.874023 1552.783203,1203.874023 
	C1552.783203,1191.970215 1552.783203,1181.231445 1552.783203,1169.444092 
	C1560.807495,1169.444092 1568.007202,1169.444092 1576.295410,1169.444092 
	C1574.584106,1146.363892 1565.291870,1127.593140 1552.374878,1108.711914 
z"/>
<path fill="#FAFDFC" opacity="1.000000" stroke="none" 
	d="
M1467.394287,1400.647583 
	C1466.578491,1385.566772 1466.494141,1370.574341 1466.488647,1355.581909 
	C1466.488281,1354.317261 1467.017334,1353.052368 1467.314575,1351.723755 
	C1549.662231,1336.448608 1598.096069,1287.756348 1612.764282,1204.124756 
	C1627.840210,1204.124756 1643.052734,1204.124756 1659.214111,1204.088379 
	C1659.458130,1235.352905 1650.328003,1264.451294 1635.511353,1291.613281 
	C1602.598022,1351.950195 1551.583252,1387.354492 1484.046631,1399.159668 
	C1478.814575,1400.074219 1473.449707,1400.228394 1467.394287,1400.647583 
z"/>
<path fill="#FAFDFC" opacity="1.000000" stroke="none" 
	d="
M1429.279419,973.920898 
	C1430.548950,987.595398 1431.023315,1001.204834 1431.275269,1014.818359 
	C1431.426270,1022.968994 1429.959595,1024.404785 1421.702515,1025.807495 
	C1377.600220,1033.299438 1342.702148,1055.584595 1316.193359,1091.410400 
	C1301.082764,1111.832153 1291.353882,1134.456299 1287.693237,1159.652344 
	C1287.268311,1162.576782 1286.374512,1165.432983 1285.443726,1169.406860 
	C1269.826172,1169.406860 1254.323975,1169.406860 1237.963623,1169.390137 
	C1245.122925,1068.900635 1320.233765,988.618591 1419.428833,974.541443 
	C1422.388672,974.121399 1425.402100,974.077087 1429.279419,973.920898 
z"/>
<path fill="#FAFDFC" opacity="1.000000" stroke="none" 
	d="
M1236.742188,1205.178223 
	C1252.679810,1204.387329 1268.584351,1204.387329 1285.449097,1204.387329 
	C1286.851929,1211.356079 1288.068726,1218.099365 1289.577271,1224.776611 
	C1296.974976,1257.519775 1313.575928,1284.871094 1337.981689,1307.752319 
	C1361.939941,1330.213745 1390.102295,1343.987793 1422.366699,1349.663452 
	C1431.166626,1351.211426 1431.499634,1351.462036 1431.431396,1360.473267 
	C1431.335815,1373.082764 1430.772949,1385.688721 1430.317383,1399.223145 
	C1383.539673,1396.497314 1342.584839,1379.159912 1307.786133,1347.906616 
	C1267.828125,1312.019775 1244.785522,1267.082764 1237.787598,1213.873535 
	C1237.440796,1211.237061 1237.069336,1208.603760 1236.742188,1205.178223 
z"/>
<path fill="#FAFDFC" opacity="1.000000" stroke="none" 
	d="
M1659.909180,1168.776855 
	C1644.224365,1169.618408 1628.624756,1169.618408 1612.815552,1169.618408 
	C1597.489868,1086.924561 1549.872681,1037.382568 1466.418945,1023.263733 
	C1466.418945,1007.270203 1466.418945,991.670654 1466.412109,975.146667 
	C1480.900757,973.791321 1494.860962,977.046509 1508.417480,981.487915 
	C1586.858032,1007.186707 1635.473633,1060.815430 1655.780273,1140.422607 
	C1658.062622,1149.369507 1658.631104,1158.753784 1659.909180,1168.776855 
z"/>
<path fill="#FCFFFE" opacity="1.000000" stroke="none" 
	d="
M1552.803101,1109.286133 
	C1565.291870,1127.593140 1574.584106,1146.363892 1576.295410,1169.444092 
	C1568.007202,1169.444092 1560.807495,1169.444092 1552.783203,1169.444092 
	C1552.783203,1181.231445 1552.783203,1191.970215 1552.783203,1203.874023 
	C1560.246460,1203.874023 1567.413574,1203.874023 1574.499390,1203.874023 
	C1576.772095,1253.643433 1522.258789,1313.121704 1466.718018,1314.791382 
	C1466.718018,1306.984863 1466.718018,1299.183472 1466.718018,1290.633423 
	C1454.327637,1290.633423 1443.246948,1290.633423 1431.202026,1290.633423 
	C1430.759644,1298.905029 1430.341187,1306.726196 1429.925293,1314.501831 
	C1383.658203,1314.374023 1323.495117,1260.624146 1322.353271,1204.746094 
	C1329.367065,1204.377197 1336.460815,1204.004028 1344.665161,1203.572388 
	C1346.077637,1192.439453 1345.657471,1181.692871 1345.082886,1170.014404 
	C1337.257080,1169.649658 1330.125244,1169.317261 1323.082397,1168.989014 
	C1321.754761,1124.220215 1371.792847,1064.304443 1430.385254,1059.210327 
	C1430.385254,1065.202393 1430.478271,1071.105347 1430.356934,1077.003662 
	C1430.252441,1082.076050 1432.562988,1084.184448 1437.616577,1084.086548 
	C1446.567139,1083.913208 1455.523560,1084.037842 1465.646484,1084.037842 
	C1466.186279,1075.384155 1466.687256,1067.353394 1467.231323,1058.630737 
	C1503.506714,1063.356812 1530.736938,1081.253296 1552.803101,1109.286133 
z"/>
</svg>