<svg version="1.1" id="Layer_1" xmlns="http://www.w3.org/2000/svg" xmlns:xlink="http://www.w3.org/1999/xlink" x="0px" y="0px"
	 width="100%" viewBox="0 0 1950 2208" enable-background="new 0 0 1950 2208" xml:space="preserve">
<path fill="#FEFEFE" opacity="1.000000" stroke="none" 
	d="
M1076.000000,2210.000000 
	C717.333313,2210.000000 359.666656,2210.000000 2.000000,2210.000000 
	C2.000000,1474.000000 2.000000,738.000000 2.000000,2.000000 
	C652.000000,2.000000 1302.000000,2.000000 1952.000000,2.000000 
	C1952.000000,738.000000 1952.000000,1474.000000 1952.000000,2210.000000 
	C1660.333374,2210.000000 1368.666626,2210.000000 1076.000000,2210.000000 
M1593.367554,1561.839478 
	C1596.677856,1559.864624 1599.988159,1557.889893 1603.298462,1555.915161 
	C1602.954834,1555.203857 1602.611206,1554.492554 1602.267578,1553.781372 
	C1598.875610,1555.333618 1595.483765,1556.885864 1590.544678,1559.010010 
	C1564.158081,1567.165161 1537.642700,1574.558228 1510.210938,1578.703613 
	C1466.015259,1585.382080 1421.896362,1585.271729 1378.052002,1577.331543 
	C1294.243042,1562.153931 1221.633301,1524.399902 1159.485474,1466.298706 
	C1158.013062,1464.922119 1156.162231,1463.950562 1154.038086,1462.478271 
	C1151.872681,1496.014160 1152.987061,1805.696655 1155.486328,1814.534302 
	C1159.665405,1812.308716 1163.767700,1810.282227 1167.719604,1807.995605 
	C1224.206543,1775.311523 1280.679321,1742.602661 1337.142822,1709.878174 
	C1397.634766,1674.818848 1458.116943,1639.742920 1518.595703,1604.661133 
	C1543.075317,1590.461182 1567.534546,1576.225952 1593.367554,1561.839478 
M154.267075,1394.765015 
	C152.296921,1391.496460 150.326752,1388.227783 148.356583,1384.959229 
	C146.414078,1387.069580 146.268738,1388.554565 146.268280,1390.039551 
	C146.241318,1478.367554 146.279327,1566.695557 146.081482,1655.023193 
	C146.069305,1660.458130 147.828644,1663.358398 152.478333,1665.987305 
	C178.857315,1680.902100 205.045792,1696.153809 231.312485,1711.267578 
	C339.558807,1773.552490 447.811401,1835.826538 556.059265,1898.108765 
	C682.205688,1970.689331 808.349731,2043.273926 934.494629,2115.856934 
	C947.742126,2123.479492 960.987671,2131.105469 974.396423,2138.822998 
	C980.247131,2135.496826 985.738770,2132.414307 991.193481,2129.267578 
	C1082.924194,2076.352295 1174.646851,2023.422485 1266.378662,1970.509277 
	C1442.063965,1869.170166 1617.743164,1767.820801 1793.498779,1666.603760 
	C1798.338623,1663.816772 1800.605835,1660.984619 1800.592285,1655.058472 
	C1800.390747,1567.064331 1800.465942,1479.069580 1800.429932,1391.074951 
	C1800.429199,1389.042236 1799.897461,1387.009766 1799.370972,1383.243896 
	C1796.447021,1387.974731 1794.655518,1391.116943 1792.633301,1394.102783 
	C1783.674316,1407.329956 1775.249634,1420.973511 1765.534302,1433.623535 
	C1737.603271,1469.992065 1702.903687,1498.969238 1664.307617,1523.330933 
	C1658.087158,1527.257202 1655.962646,1531.374756 1656.237549,1538.527466 
	C1656.812134,1553.480957 1656.411499,1568.472046 1656.411499,1584.128906 
	C1429.511108,1715.393921 1202.719482,1846.595947 975.918091,1977.803711 
	C747.083069,1846.119385 518.560059,1714.614746 289.968872,1583.070801 
	C289.968872,1564.487549 289.968872,1546.538574 289.968872,1528.249146 
	C233.457230,1495.783447 188.198471,1452.020020 154.267075,1394.765015 
M892.033813,1871.206787 
	C895.101440,1872.937988 898.169128,1874.669189 902.580322,1877.158691 
	C902.580322,1677.315186 902.580322,1479.193237 902.580322,1280.035889 
	C953.534912,1280.035889 1003.669800,1280.035889 1054.899902,1280.035889 
	C1043.950806,1233.250977 1041.499756,1187.031738 1046.432373,1139.580688 
	C997.782227,1139.580688 950.619202,1139.580688 902.558044,1139.580688 
	C902.558044,1136.171753 902.558411,1133.570312 902.557983,1130.968872 
	C902.539856,1026.655273 902.602600,922.341431 902.317322,818.028564 
	C902.298706,811.233459 904.811096,808.065247 910.296875,804.916443 
	C969.787415,770.769653 1029.118896,736.345825 1088.528442,702.057800 
	C1201.864624,636.646240 1315.224731,571.276367 1428.564575,505.871094 
	C1431.642944,504.094635 1434.602539,502.112274 1438.862183,499.447235 
	C1391.713135,472.206360 1345.717651,445.631927 1299.063354,418.676849 
	C1118.771118,522.661499 938.549805,626.605225 758.337646,730.543701 
	C758.337646,1085.116943 758.337646,1439.303833 758.337646,1793.715698 
	C802.614319,1819.350220 846.690430,1844.868530 892.033813,1871.206787 
M1099.214722,1233.683716 
	C1099.611450,1237.328003 1099.834229,1241.000854 1100.430298,1244.612183 
	C1111.782227,1313.375977 1141.270508,1373.250610 1190.217773,1422.844238 
	C1291.378296,1525.341064 1440.361694,1555.641724 1569.594238,1511.530762 
	C1640.677368,1487.267944 1699.404175,1445.271973 1741.520386,1382.388794 
	C1794.086792,1303.902100 1811.400635,1217.192993 1794.038818,1124.814575 
	C1770.950317,1001.965027 1700.722046,915.607300 1585.085938,867.554077 
	C1521.595947,841.170410 1455.198730,836.620789 1387.789062,847.744751 
	C1305.612793,861.305420 1235.757324,898.459839 1181.529297,962.016602 
	C1115.207031,1039.748047 1087.709229,1130.088379 1099.214722,1233.683716 
M436.445679,849.372192 
	C409.591339,852.950684 383.645325,859.914246 358.520752,870.049377 
	C278.525360,902.319275 218.115799,956.041138 181.109268,1034.369751 
	C153.873749,1092.016968 142.265167,1152.896851 147.560333,1216.809204 
	C149.354294,1238.462158 152.935028,1259.731689 158.393692,1280.669800 
	C171.192825,1329.764404 193.841049,1373.764282 226.844116,1412.482544 
	C255.589386,1446.206055 289.918793,1472.705200 329.411163,1492.377808 
	C378.928436,1517.044067 431.993103,1527.223755 486.913605,1527.296997 
	C506.775055,1527.323608 526.793274,1524.966431 546.475830,1521.964844 
	C600.961609,1513.655884 650.852661,1493.290894 696.599121,1462.556885 
	C701.849426,1459.029419 704.038391,1455.383789 704.020813,1448.819824 
	C703.755615,1349.512573 703.812439,1250.204224 703.767822,1150.896240 
	C703.766357,1147.649536 703.490295,1144.402832 703.319763,1140.662231 
	C619.605774,1140.662231 536.542358,1140.662231 453.589264,1140.662231 
	C451.542297,1153.403320 452.045197,1249.601685 454.416595,1257.780151 
	C463.650024,1257.780151 473.234589,1257.777832 482.819153,1257.780884 
	C492.483368,1257.783936 502.147583,1257.794434 511.811798,1257.797729 
	C521.476013,1257.801147 531.141479,1257.701294 540.804016,1257.827881 
	C550.299133,1257.952271 559.861328,1257.153442 569.338135,1258.407837 
	C569.338135,1299.393555 569.338135,1339.254517 569.338135,1378.924805 
	C567.630066,1379.851074 566.512146,1380.605103 565.289062,1381.098877 
	C526.995483,1396.560791 487.497986,1400.990845 446.816162,1393.645630 
	C407.304047,1386.511475 372.957642,1368.672974 344.609161,1340.583374 
	C307.150970,1303.467163 290.251251,1256.790405 286.315430,1205.062866 
	C284.332397,1179.000488 287.265137,1153.253540 293.955231,1127.896484 
	C303.032898,1093.489868 317.783478,1062.007935 342.756287,1036.348389 
	C387.251709,990.629456 441.650909,970.795837 505.347839,975.553833 
	C544.022583,978.442749 578.363464,992.195984 609.746826,1014.321960 
	C613.479065,1016.953186 617.268433,1019.503479 621.574585,1022.464966 
	C650.032471,989.457581 677.791626,956.908997 705.672974,923.219727 
	C626.307068,859.349976 537.141052,836.563110 436.445679,849.372192 
M754.516174,359.562927 
	C695.829590,393.098724 637.133606,426.618073 578.458252,460.173615 
	C437.399078,540.843262 296.373199,621.571350 155.221298,702.078369 
	C148.675430,705.811951 146.038605,709.736206 146.068390,717.592346 
	C146.404526,806.247009 146.278900,894.903381 146.277145,983.559326 
	C146.277100,986.360901 146.277145,989.162476 146.277145,992.230225 
	C147.736893,991.743347 148.147400,991.736877 148.289993,991.538208 
	C149.444794,989.928589 150.664108,988.349182 151.652527,986.638550 
	C184.200500,930.308044 229.209473,886.164124 284.026031,851.731689 
	C288.984741,848.616882 290.455200,845.182556 290.359924,839.648132 
	C290.056549,822.028809 290.247559,804.400879 290.247559,786.332764 
	C518.450623,654.965637 746.393127,523.748474 974.542114,392.412506 
	C977.399658,394.022186 980.297913,395.620392 983.164001,397.274445 
	C1022.391174,419.913055 1061.672852,442.458527 1100.767334,465.324158 
	C1105.985474,468.376160 1109.752930,468.615143 1115.136963,465.466583 
	C1155.665405,441.765717 1196.421387,418.453949 1237.091187,394.994446 
	C1239.893677,393.377869 1242.574341,391.549988 1246.461304,389.093933 
	C1155.086670,336.735687 1065.005249,285.118469 974.802063,233.431458 
	C901.395569,275.440918 828.578247,317.113190 754.516174,359.562927 
M1124.324341,953.368469 
	C1130.821411,945.349915 1137.017822,937.064209 1143.866089,929.357849 
	C1178.114014,890.818665 1218.276855,859.860840 1264.443237,836.902954 
	C1309.905640,814.295105 1357.977173,800.631104 1408.568970,795.714111 
	C1446.880005,791.990662 1485.150513,792.449951 1523.059937,798.639221 
	C1545.973755,802.380127 1568.426392,808.943542 1591.090210,814.221924 
	C1594.103516,814.923767 1597.139771,815.526611 1600.165405,816.175293 
	C1592.758423,809.359070 1584.702026,804.199524 1576.463867,799.348267 
	C1524.530640,768.766174 1472.574829,738.222046 1420.590698,707.726501 
	C1383.828369,686.160583 1346.942749,664.803345 1310.282227,643.066162 
	C1304.285522,639.510559 1299.654419,639.894714 1293.779907,643.311157 
	C1243.409424,672.605164 1192.868408,701.605957 1142.395264,730.723511 
	C1082.115234,765.498657 1021.892395,800.373230 961.515320,834.979065 
	C955.810486,838.248840 953.831482,842.095032 953.847412,848.537231 
	C954.037048,925.508118 953.968201,1002.479675 954.005859,1079.451050 
	C954.007385,1082.647705 954.390259,1085.844116 954.623108,1089.470215 
	C989.457947,1089.470215 1023.321472,1089.470215 1056.110229,1089.470215 
	C1065.682739,1065.580078 1074.225830,1042.146606 1084.403809,1019.446106 
	C1094.770996,996.323547 1108.089844,974.737488 1124.324341,953.368469 
M953.855652,1865.000000 
	C953.849976,1875.998047 953.774109,1886.996704 953.855286,1897.994141 
	C953.970337,1913.585327 951.939270,1908.849121 964.877014,1917.293091 
	C965.710388,1917.836914 966.665283,1918.192139 967.513672,1918.716064 
	C971.291199,1921.048584 974.972473,1921.007935 978.790405,1918.667847 
	C983.047302,1916.058838 987.444702,1913.679810 991.766418,1911.175659 
	C1024.906250,1891.972778 1057.971802,1872.639648 1091.251343,1853.681763 
	C1096.632812,1850.616089 1098.740356,1847.070190 1098.474854,1841.018311 
	C1098.066406,1831.704590 1098.352783,1822.360229 1098.352173,1813.028809 
	C1098.343384,1675.390747 1098.302856,1537.752808 1098.425293,1400.114868 
	C1098.431396,1393.217773 1096.886963,1387.220215 1093.762695,1381.087769 
	C1086.662354,1367.150391 1079.676758,1353.096436 1073.791870,1338.623413 
	C1071.018433,1331.802734 1067.483032,1329.792847 1060.515015,1329.856201 
	C1027.858032,1330.153442 995.196594,1329.958618 962.536865,1330.002563 
	C959.977600,1330.005981 957.419006,1330.490967 953.852600,1330.855103 
	C953.852600,1508.589478 953.852600,1685.794678 953.855652,1865.000000 
M1621.235107,603.779419 
	C1577.936646,578.928284 1534.638184,554.077087 1491.268799,529.185242 
	C1444.945312,555.971313 1399.081787,582.491394 1352.135376,609.637634 
	C1355.289429,611.646118 1356.888428,612.748901 1358.564331,613.718811 
	C1395.740479,635.235962 1432.934448,656.722595 1470.106323,678.247192 
	C1529.755859,712.787537 1589.339966,747.441589 1649.116577,781.760437 
	C1654.877075,785.067627 1656.838379,788.696594 1656.603760,795.153625 
	C1656.107666,808.798889 1656.964478,822.501099 1656.261597,836.128174 
	C1655.846191,844.180481 1658.824219,848.605835 1665.474731,852.822998 
	C1718.981201,886.752197 1762.576538,930.493835 1794.913696,985.190552 
	C1796.139160,987.263428 1797.686401,989.146179 1800.164673,992.642456 
	C1800.164673,895.981384 1800.164673,801.438721 1800.164673,706.550537 
	C1740.869263,672.471802 1681.698730,638.464905 1621.235107,603.779419 
M913.432617,486.397827 
	C864.958862,514.319458 816.468933,542.213135 768.014587,570.168396 
	C660.440430,632.232239 552.881775,694.322876 445.322052,756.411682 
	C416.197479,773.223877 387.077179,790.043579 358.000153,806.937683 
	C355.162201,808.586487 351.488403,809.584045 349.968292,814.709412 
	C474.503357,777.524292 592.729614,787.446655 704.905334,856.253235 
	C705.119873,851.698181 705.388489,848.486389 705.404724,845.273315 
	C705.630676,800.626526 705.976501,755.979065 705.859314,711.333008 
	C705.841187,704.431580 708.005432,700.557556 714.017822,697.198242 
	C738.432861,683.556824 762.592102,669.455688 786.793823,655.434570 
	C874.381409,604.690979 961.950806,553.916138 1049.503418,503.112122 
	C1051.334229,502.049713 1052.877930,500.492157 1055.515015,498.406891 
	C1027.746826,482.493134 1000.978455,467.152344 973.998962,451.690613 
	C953.952515,463.198639 934.338318,474.458466 913.432617,486.397827 
M607.187805,1564.211792 
	C559.380066,1578.382935 510.685211,1582.650513 461.003448,1578.540771 
	C424.628876,1575.531860 389.315216,1567.911011 354.521667,1557.319946 
	C352.712646,1556.769409 350.824646,1556.478394 348.973419,1556.066528 
	C348.695526,1556.667969 348.417664,1557.269531 348.139771,1557.870972 
	C466.382965,1625.677856 584.626160,1693.484619 703.922241,1761.895142 
	C706.648926,1681.996216 705.804016,1603.369995 705.663757,1522.743042 
	C673.824097,1540.895020 642.144958,1554.460205 607.187805,1564.211792 
M345.920105,814.328186 
	C346.081177,814.793274 346.242249,815.258423 346.403290,815.723511 
	C346.587311,815.230591 346.771332,814.737610 345.920105,814.328186 
M345.501770,1555.044189 
	C345.501770,1555.044189 344.977631,1554.847778 344.977631,1554.847778 
	C344.977631,1554.847778 345.108978,1555.260864 345.501770,1555.044189 
z"/>
<path fill="#3A434A" opacity="1.000000" stroke="none" 
	d="
M154.648102,1395.380615 
	C188.198471,1452.020020 233.457230,1495.783447 289.968872,1528.249146 
	C289.968872,1546.538574 289.968872,1564.487549 289.968872,1583.070801 
	C518.560059,1714.614746 747.083069,1846.119385 975.918091,1977.803711 
	C1202.719482,1846.595947 1429.511108,1715.393921 1656.411499,1584.128906 
	C1656.411499,1568.472046 1656.812134,1553.480957 1656.237549,1538.527466 
	C1655.962646,1531.374756 1658.087158,1527.257202 1664.307617,1523.330933 
	C1702.903687,1498.969238 1737.603271,1469.992065 1765.534302,1433.623535 
	C1775.249634,1420.973511 1783.674316,1407.329956 1792.633301,1394.102783 
	C1794.655518,1391.116943 1796.447021,1387.974731 1799.370972,1383.243896 
	C1799.897461,1387.009766 1800.429199,1389.042236 1800.429932,1391.074951 
	C1800.465942,1479.069580 1800.390747,1567.064331 1800.592285,1655.058472 
	C1800.605835,1660.984619 1798.338623,1663.816772 1793.498779,1666.603760 
	C1617.743164,1767.820801 1442.063965,1869.170166 1266.378662,1970.509277 
	C1174.646851,2023.422485 1082.924194,2076.352295 991.193481,2129.267578 
	C985.738770,2132.414307 980.247131,2135.496826 974.396423,2138.822998 
	C960.987671,2131.105469 947.742126,2123.479492 934.494629,2115.856934 
	C808.349731,2043.273926 682.205688,1970.689331 556.059265,1898.108765 
	C447.811401,1835.826538 339.558807,1773.552490 231.312485,1711.267578 
	C205.045792,1696.153809 178.857315,1680.902100 152.478333,1665.987305 
	C147.828644,1663.358398 146.069305,1660.458130 146.081482,1655.023193 
	C146.279327,1566.695557 146.241318,1478.367554 146.268280,1390.039551 
	C146.268738,1388.554565 146.414078,1387.069580 148.356583,1384.959229 
	C150.326752,1388.227783 152.296921,1391.496460 154.648102,1395.380615 
z"/>
<path fill="#3A434A" opacity="1.000000" stroke="none" 
	d="
M891.400146,1870.796875 
	C846.690430,1844.868530 802.614319,1819.350220 758.337646,1793.715698 
	C758.337646,1439.303833 758.337646,1085.116943 758.337646,730.543701 
	C938.549805,626.605225 1118.771118,522.661499 1299.063354,418.676849 
	C1345.717651,445.631927 1391.713135,472.206360 1438.862183,499.447235 
	C1434.602539,502.112274 1431.642944,504.094635 1428.564575,505.871094 
	C1315.224731,571.276367 1201.864624,636.646240 1088.528442,702.057800 
	C1029.118896,736.345825 969.787415,770.769653 910.296875,804.916443 
	C904.811096,808.065247 902.298706,811.233459 902.317322,818.028564 
	C902.602600,922.341431 902.539856,1026.655273 902.557983,1130.968872 
	C902.558411,1133.570312 902.558044,1136.171753 902.558044,1139.580688 
	C950.619202,1139.580688 997.782227,1139.580688 1046.432373,1139.580688 
	C1041.499756,1187.031738 1043.950806,1233.250977 1054.899902,1280.035889 
	C1003.669800,1280.035889 953.534912,1280.035889 902.580322,1280.035889 
	C902.580322,1479.193237 902.580322,1677.315186 902.580322,1877.158691 
	C898.169128,1874.669189 895.101440,1872.937988 891.400146,1870.796875 
z"/>
<path fill="#3A434A" opacity="1.000000" stroke="none" 
	d="
M1099.039917,1232.796631 
	C1087.709229,1130.088379 1115.207031,1039.748047 1181.529297,962.016602 
	C1235.757324,898.459839 1305.612793,861.305420 1387.789062,847.744751 
	C1455.198730,836.620789 1521.595947,841.170410 1585.085938,867.554077 
	C1700.722046,915.607300 1770.950317,1001.965027 1794.038818,1124.814575 
	C1811.400635,1217.192993 1794.086792,1303.902100 1741.520386,1382.388794 
	C1699.404175,1445.271973 1640.677368,1487.267944 1569.594238,1511.530762 
	C1440.361694,1555.641724 1291.378296,1525.341064 1190.217773,1422.844238 
	C1141.270508,1373.250610 1111.782227,1313.375977 1100.430298,1244.612183 
	C1099.834229,1241.000854 1099.611450,1237.328003 1099.039917,1232.796631 
M1236.708374,1205.969604 
	C1237.068726,1208.604370 1237.441162,1211.237427 1237.787842,1213.874023 
	C1244.784180,1267.083740 1267.828979,1312.020874 1307.785278,1347.907349 
	C1342.582642,1379.160522 1383.538940,1396.497803 1431.787598,1400.634399 
	C1443.405762,1400.609497 1455.024048,1400.584717 1468.146118,1400.738647 
	C1473.449341,1400.230347 1478.813721,1400.073364 1484.046387,1399.160645 
	C1551.197998,1387.447632 1602.056274,1352.336304 1635.041138,1292.492676 
	C1650.143921,1265.092285 1659.434937,1235.702637 1661.144287,1202.732422 
	C1660.703979,1191.695068 1660.263672,1180.657593 1659.994263,1167.936523 
	C1658.631226,1158.755005 1658.062866,1149.370728 1655.780762,1140.423706 
	C1635.474365,1060.814941 1586.857666,1007.186035 1508.415894,981.487366 
	C1494.859497,977.046082 1480.899292,973.789246 1464.725586,973.804382 
	C1453.195312,971.766113 1441.675293,971.724365 1428.389771,973.857422 
	C1425.401367,974.076843 1422.387939,974.120972 1419.427979,974.541016 
	C1320.231812,988.617676 1245.135742,1068.884277 1236.473877,1171.231445 
	C1236.574219,1182.283691 1236.674561,1193.336060 1236.708374,1205.969604 
z"/>
<path fill="#919397" opacity="1.000000" stroke="none" 
	d="
M437.305603,849.161987 
	C537.141052,836.563110 626.307068,859.349976 705.672974,923.219727 
	C677.791626,956.908997 650.032471,989.457581 621.574585,1022.464966 
	C617.268433,1019.503479 613.479065,1016.953186 609.746826,1014.321960 
	C578.363464,992.195984 544.022583,978.442749 505.347839,975.553833 
	C441.650909,970.795837 387.251709,990.629456 342.756287,1036.348389 
	C317.783478,1062.007935 303.032898,1093.489868 293.955231,1127.896484 
	C287.265137,1153.253540 284.332397,1179.000488 286.315430,1205.062866 
	C290.251251,1256.790405 307.150970,1303.467163 344.609161,1340.583374 
	C372.957642,1368.672974 407.304047,1386.511475 446.816162,1393.645630 
	C487.497986,1400.990845 526.995483,1396.560791 565.289062,1381.098877 
	C566.512146,1380.605103 567.630066,1379.851074 569.338135,1378.924805 
	C569.338135,1339.254517 569.338135,1299.393555 569.338135,1258.407837 
	C559.861328,1257.153442 550.299133,1257.952271 540.804016,1257.827881 
	C531.141479,1257.701294 521.476013,1257.801147 511.811798,1257.797729 
	C502.147583,1257.794434 492.483368,1257.783936 482.819153,1257.780884 
	C473.234589,1257.777832 463.650024,1257.780151 454.416595,1257.780151 
	C452.045197,1249.601685 451.542297,1153.403320 453.589264,1140.662231 
	C536.542358,1140.662231 619.605774,1140.662231 703.319763,1140.662231 
	C703.490295,1144.402832 703.766357,1147.649536 703.767822,1150.896240 
	C703.812439,1250.204224 703.755615,1349.512573 704.020813,1448.819824 
	C704.038391,1455.383789 701.849426,1459.029419 696.599121,1462.556885 
	C650.852661,1493.290894 600.961609,1513.655884 546.475830,1521.964844 
	C526.793274,1524.966431 506.775055,1527.323608 486.913605,1527.296997 
	C431.993103,1527.223755 378.928436,1517.044067 329.411163,1492.377808 
	C289.918793,1472.705200 255.589386,1446.206055 226.844116,1412.482544 
	C193.841049,1373.764282 171.192825,1329.764404 158.393692,1280.669800 
	C152.935028,1259.731689 149.354294,1238.462158 147.560333,1216.809204 
	C142.265167,1152.896851 153.873749,1092.016968 181.109268,1034.369751 
	C218.115799,956.041138 278.525360,902.319275 358.520752,870.049377 
	C383.645325,859.914246 409.591339,852.950684 437.305603,849.161987 
z"/>
<path fill="#3B444B" opacity="1.000000" stroke="none" 
	d="
M755.138550,359.174194 
	C828.578247,317.113190 901.395569,275.440918 974.802063,233.431458 
	C1065.005249,285.118469 1155.086670,336.735687 1246.461304,389.093933 
	C1242.574341,391.549988 1239.893677,393.377869 1237.091187,394.994446 
	C1196.421387,418.453949 1155.665405,441.765717 1115.136963,465.466583 
	C1109.752930,468.615143 1105.985474,468.376160 1100.767334,465.324158 
	C1061.672852,442.458527 1022.391174,419.913055 983.164001,397.274445 
	C980.297913,395.620392 977.399658,394.022186 974.542114,392.412506 
	C746.393127,523.748474 518.450623,654.965637 290.247559,786.332764 
	C290.247559,804.400879 290.056549,822.028809 290.359924,839.648132 
	C290.455200,845.182556 288.984741,848.616882 284.026031,851.731689 
	C229.209473,886.164124 184.200500,930.308044 151.652527,986.638550 
	C150.664108,988.349182 149.444794,989.928589 148.289993,991.538208 
	C148.147400,991.736877 147.736893,991.743347 146.277145,992.230225 
	C146.277145,989.162476 146.277100,986.360901 146.277145,983.559326 
	C146.278900,894.903381 146.404526,806.247009 146.068390,717.592346 
	C146.038605,709.736206 148.675430,705.811951 155.221298,702.078369 
	C296.373199,621.571350 437.399078,540.843262 578.458252,460.173615 
	C637.133606,426.618073 695.829590,393.098724 755.138550,359.174194 
z"/>
<path fill="#5BDDA1" opacity="1.000000" stroke="none" 
	d="
M1123.931885,953.962463 
	C1108.089844,974.737488 1094.770996,996.323547 1084.403809,1019.446106 
	C1074.225830,1042.146606 1065.682739,1065.580078 1056.110229,1089.470215 
	C1023.321472,1089.470215 989.457947,1089.470215 954.623108,1089.470215 
	C954.390259,1085.844116 954.007385,1082.647705 954.005859,1079.451050 
	C953.968201,1002.479675 954.037048,925.508118 953.847412,848.537231 
	C953.831482,842.095032 955.810486,838.248840 961.515320,834.979065 
	C1021.892395,800.373230 1082.115234,765.498657 1142.395264,730.723511 
	C1192.868408,701.605957 1243.409424,672.605164 1293.779907,643.311157 
	C1299.654419,639.894714 1304.285522,639.510559 1310.282227,643.066162 
	C1346.942749,664.803345 1383.828369,686.160583 1420.590698,707.726501 
	C1472.574829,738.222046 1524.530640,768.766174 1576.463867,799.348267 
	C1584.702026,804.199524 1592.758423,809.359070 1600.165405,816.175293 
	C1597.139771,815.526611 1594.103516,814.923767 1591.090210,814.221924 
	C1568.426392,808.943542 1545.973755,802.380127 1523.059937,798.639221 
	C1485.150513,792.449951 1446.880005,791.990662 1408.568970,795.714111 
	C1357.977173,800.631104 1309.905640,814.295105 1264.443237,836.902954 
	C1218.276855,859.860840 1178.114014,890.818665 1143.866089,929.357849 
	C1137.017822,937.064209 1130.821411,945.349915 1123.931885,953.962463 
z"/>
<path fill="#5BDCA1" opacity="1.000000" stroke="none" 
	d="
M953.854126,1864.000000 
	C953.852600,1685.794678 953.852600,1508.589478 953.852600,1330.855103 
	C957.419006,1330.490967 959.977600,1330.005981 962.536865,1330.002563 
	C995.196594,1329.958618 1027.858032,1330.153442 1060.515015,1329.856201 
	C1067.483032,1329.792847 1071.018433,1331.802734 1073.791870,1338.623413 
	C1079.676758,1353.096436 1086.662354,1367.150391 1093.762695,1381.087769 
	C1096.886963,1387.220215 1098.431396,1393.217773 1098.425293,1400.114868 
	C1098.302856,1537.752808 1098.343384,1675.390747 1098.352173,1813.028809 
	C1098.352783,1822.360229 1098.066406,1831.704590 1098.474854,1841.018311 
	C1098.740356,1847.070190 1096.632812,1850.616089 1091.251343,1853.681763 
	C1057.971802,1872.639648 1024.906250,1891.972778 991.766418,1911.175659 
	C987.444702,1913.679810 983.047302,1916.058838 978.790405,1918.667847 
	C974.972473,1921.007935 971.291199,1921.048584 967.513672,1918.716064 
	C966.665283,1918.192139 965.710388,1917.836914 964.877014,1917.293091 
	C951.939270,1908.849121 953.970337,1913.585327 953.855286,1897.994141 
	C953.774109,1886.996704 953.849976,1875.998047 953.854126,1864.000000 
z"/>
<path fill="#3B434A" opacity="1.000000" stroke="none" 
	d="
M1621.881714,604.118713 
	C1681.698730,638.464905 1740.869263,672.471802 1800.164673,706.550537 
	C1800.164673,801.438721 1800.164673,895.981384 1800.164673,992.642456 
	C1797.686401,989.146179 1796.139160,987.263428 1794.913696,985.190552 
	C1762.576538,930.493835 1718.981201,886.752197 1665.474731,852.822998 
	C1658.824219,848.605835 1655.846191,844.180481 1656.261597,836.128174 
	C1656.964478,822.501099 1656.107666,808.798889 1656.603760,795.153625 
	C1656.838379,788.696594 1654.877075,785.067627 1649.116577,781.760437 
	C1589.339966,747.441589 1529.755859,712.787537 1470.106323,678.247192 
	C1432.934448,656.722595 1395.740479,635.235962 1358.564331,613.718811 
	C1356.888428,612.748901 1355.289429,611.646118 1352.135376,609.637634 
	C1399.081787,582.491394 1444.945312,555.971313 1491.268799,529.185242 
	C1534.638184,554.077087 1577.936646,578.928284 1621.881714,604.118713 
z"/>
<path fill="#929497" opacity="1.000000" stroke="none" 
	d="
M914.078369,486.058075 
	C934.338318,474.458466 953.952515,463.198639 973.998962,451.690613 
	C1000.978455,467.152344 1027.746826,482.493134 1055.515015,498.406891 
	C1052.877930,500.492157 1051.334229,502.049713 1049.503418,503.112122 
	C961.950806,553.916138 874.381409,604.690979 786.793823,655.434570 
	C762.592102,669.455688 738.432861,683.556824 714.017822,697.198242 
	C708.005432,700.557556 705.841187,704.431580 705.859314,711.333008 
	C705.976501,755.979065 705.630676,800.626526 705.404724,845.273315 
	C705.388489,848.486389 705.119873,851.698181 704.905334,856.253235 
	C592.729614,787.446655 474.503357,777.524292 349.968292,814.709412 
	C351.488403,809.584045 355.162201,808.586487 358.000153,806.937683 
	C387.077179,790.043579 416.197479,773.223877 445.322052,756.411682 
	C552.881775,694.322876 660.440430,632.232239 768.014587,570.168396 
	C816.468933,542.213135 864.958862,514.319458 914.078369,486.058075 
z"/>
<path fill="#919396" opacity="1.000000" stroke="none" 
	d="
M1592.003052,1562.006714 
	C1567.534546,1576.225952 1543.075317,1590.461182 1518.595703,1604.661133 
	C1458.116943,1639.742920 1397.634766,1674.818848 1337.142822,1709.878174 
	C1280.679321,1742.602661 1224.206543,1775.311523 1167.719604,1807.995605 
	C1163.767700,1810.282227 1159.665405,1812.308716 1155.486328,1814.534302 
	C1152.987061,1805.696655 1151.872681,1496.014160 1154.038086,1462.478271 
	C1156.162231,1463.950562 1158.013062,1464.922119 1159.485474,1466.298706 
	C1221.633301,1524.399902 1294.243042,1562.153931 1378.052002,1577.331543 
	C1421.896362,1585.271729 1466.015259,1585.382080 1510.210938,1578.703613 
	C1537.642700,1574.558228 1564.158081,1567.165161 1591.281250,1559.618652 
	C1592.012939,1560.820557 1592.008057,1561.413574 1592.003052,1562.006714 
z"/>
<path fill="#929497" opacity="1.000000" stroke="none" 
	d="
M607.975952,1564.037720 
	C642.144958,1554.460205 673.824097,1540.895020 705.663757,1522.743042 
	C705.804016,1603.369995 706.648926,1681.996216 703.922241,1761.895142 
	C584.626160,1693.484619 466.382965,1625.677856 348.139771,1557.870972 
	C348.417664,1557.269531 348.695526,1556.667969 348.973419,1556.066528 
	C350.824646,1556.478394 352.712646,1556.769409 354.521667,1557.319946 
	C389.315216,1567.911011 424.628876,1575.531860 461.003448,1578.540771 
	C510.685211,1582.650513 559.380066,1578.382935 607.975952,1564.037720 
z"/>
<path fill="#B4B5B6" opacity="1.000000" stroke="none" 
	d="
M1592.685303,1561.923096 
	C1592.008057,1561.413574 1592.012939,1560.820557 1592.054932,1559.332764 
	C1595.483765,1556.885864 1598.875610,1555.333618 1602.267578,1553.781372 
	C1602.611206,1554.492554 1602.954834,1555.203857 1603.298462,1555.915161 
	C1599.988159,1557.889893 1596.677856,1559.864624 1592.685303,1561.923096 
z"/>
<path fill="#929497" opacity="1.000000" stroke="none" 
	d="
M346.437744,814.286438 
	C346.771332,814.737610 346.587311,815.230591 346.403290,815.723511 
	C346.242249,815.258423 346.081177,814.793274 346.437744,814.286438 
z"/>
<path fill="#929497" opacity="1.000000" stroke="none" 
	d="
M345.305359,1555.152588 
	C345.108978,1555.260864 344.977631,1554.847778 344.977631,1554.847778 
	C344.977631,1554.847778 345.501770,1555.044189 345.305359,1555.152588 
z"/>
<path fill="#5EDCA3" opacity="1.000000" stroke="none" 
	d="
M1659.823364,1169.620239 
	C1660.263672,1180.657593 1660.703979,1191.695068 1659.704590,1203.428223 
	C1643.051758,1204.123901 1627.838379,1204.123901 1612.764038,1204.123901 
	C1598.092285,1287.753296 1549.683716,1336.471558 1467.317505,1351.691772 
	C1467.013062,1353.051636 1466.484131,1354.316162 1466.484619,1355.580322 
	C1466.491333,1370.573486 1466.577148,1385.566772 1466.642212,1400.559937 
	C1455.024048,1400.584717 1443.405762,1400.609497 1431.097412,1399.472168 
	C1430.772583,1385.701660 1431.337769,1373.094971 1431.435547,1360.484741 
	C1431.505493,1351.470825 1431.167114,1351.214233 1422.380005,1349.667969 
	C1390.115112,1343.990234 1361.912842,1330.259399 1337.999512,1307.745361 
	C1313.669556,1284.839233 1296.899902,1257.568359 1289.577393,1224.776733 
	C1288.085205,1218.094604 1286.853271,1211.354614 1285.450439,1204.388306 
	C1268.586792,1204.388306 1252.680908,1204.388306 1236.775024,1204.388306 
	C1236.674561,1193.336060 1236.574219,1182.283691 1237.647461,1170.320801 
	C1254.324219,1169.410034 1269.827271,1169.410034 1285.184814,1169.410034 
	C1300.136230,1086.590942 1349.196655,1038.924072 1430.167358,1023.285583 
	C1430.167358,1006.414978 1430.167358,990.199524 1430.167358,973.984009 
	C1441.675293,971.724365 1453.195312,971.766113 1465.570801,974.937927 
	C1466.416138,991.671936 1466.416138,1007.272461 1466.416138,1023.266846 
	C1549.882935,1037.372437 1597.484863,1086.930664 1612.817871,1169.620239 
	C1628.622314,1169.620239 1644.222900,1169.620239 1659.823364,1169.620239 
M1430.459961,1306.709595 
	C1430.666260,1301.492432 1430.872559,1296.275391 1431.094971,1290.648438 
	C1443.277344,1290.648438 1454.362183,1290.648438 1466.755615,1290.648438 
	C1466.755615,1299.213989 1466.755615,1307.013184 1466.755615,1314.819336 
	C1518.250122,1313.143066 1573.976562,1260.064819 1575.304077,1204.651123 
	C1567.889038,1204.323364 1560.430298,1203.993652 1552.818115,1203.657104 
	C1552.818115,1191.892700 1552.818115,1181.151001 1552.818115,1169.375977 
	C1560.887207,1169.375977 1568.092651,1169.375977 1575.255859,1169.375977 
	C1575.933228,1127.234009 1530.197998,1064.293823 1467.137573,1059.171143 
	C1466.703735,1067.176758 1466.269287,1075.193359 1465.821777,1083.452393 
	C1453.865356,1083.452393 1443.026245,1083.452393 1431.204468,1083.452393 
	C1430.640015,1074.965576 1430.108276,1066.968872 1429.575806,1058.963013 
	C1369.093872,1066.225952 1322.507080,1124.814331 1322.846802,1168.868408 
	C1330.123291,1169.150146 1337.449463,1169.433716 1345.372559,1169.740479 
	C1345.321533,1181.803955 1346.336914,1192.599609 1344.397827,1204.308105 
	C1336.454956,1204.308105 1329.593018,1204.308105 1322.797974,1204.308105 
	C1321.296021,1251.540894 1373.417969,1310.799316 1429.471069,1315.128296 
	C1429.791870,1312.942871 1430.118286,1310.719849 1430.459961,1306.709595 
z"/>
<path fill="#FAFDFC" opacity="1.000000" stroke="none" 
	d="
M1467.394165,1400.649292 
	C1466.577148,1385.566772 1466.491333,1370.573486 1466.484619,1355.580322 
	C1466.484131,1354.316162 1467.013062,1353.051636 1467.317505,1351.691772 
	C1549.683716,1336.471558 1598.092285,1287.753296 1612.764038,1204.123901 
	C1627.838379,1204.123901 1643.051758,1204.123901 1659.213867,1204.087891 
	C1659.434937,1235.702637 1650.143921,1265.092285 1635.041138,1292.492676 
	C1602.056274,1352.336304 1551.197998,1387.447632 1484.046387,1399.160645 
	C1478.813721,1400.073364 1473.449341,1400.230347 1467.394165,1400.649292 
z"/>
<path fill="#FAFDFC" opacity="1.000000" stroke="none" 
	d="
M1429.278564,973.920715 
	C1430.167358,990.199524 1430.167358,1006.414978 1430.167358,1023.285583 
	C1349.196655,1038.924072 1300.136230,1086.590942 1285.184814,1169.410034 
	C1269.827271,1169.410034 1254.324219,1169.410034 1237.962891,1169.392090 
	C1245.135742,1068.884277 1320.231812,988.617676 1419.427979,974.541016 
	C1422.387939,974.120972 1425.401367,974.076843 1429.278564,973.920715 
z"/>
<path fill="#FAFDFC" opacity="1.000000" stroke="none" 
	d="
M1236.741699,1205.178955 
	C1252.680908,1204.388306 1268.586792,1204.388306 1285.450439,1204.388306 
	C1286.853271,1211.354614 1288.085205,1218.094604 1289.577393,1224.776733 
	C1296.899902,1257.568359 1313.669556,1284.839233 1337.999512,1307.745361 
	C1361.912842,1330.259399 1390.115112,1343.990234 1422.380005,1349.667969 
	C1431.167114,1351.214233 1431.505493,1351.470825 1431.435547,1360.484741 
	C1431.337769,1373.094971 1430.772583,1385.701660 1430.315674,1399.229980 
	C1383.538940,1396.497803 1342.582642,1379.160522 1307.785278,1347.907349 
	C1267.828979,1312.020874 1244.784180,1267.083740 1237.787842,1213.874023 
	C1237.441162,1211.237427 1237.068726,1208.604370 1236.741699,1205.178955 
z"/>
<path fill="#FAFDFC" opacity="1.000000" stroke="none" 
	d="
M1659.908813,1168.778320 
	C1644.222900,1169.620239 1628.622314,1169.620239 1612.817871,1169.620239 
	C1597.484863,1086.930664 1549.882935,1037.372437 1466.416138,1023.266846 
	C1466.416138,1007.272461 1466.416138,991.671936 1466.409668,975.147217 
	C1480.899292,973.789246 1494.859497,977.046082 1508.415894,981.487366 
	C1586.857666,1007.186035 1635.474365,1060.814941 1655.780762,1140.423706 
	C1658.062866,1149.370728 1658.631226,1158.755005 1659.908813,1168.778320 
z"/>
<path fill="#FCFFFE" opacity="1.000000" stroke="none" 
	d="
M1430.452393,1307.603149 
	C1430.118286,1310.719849 1429.791870,1312.942871 1429.471069,1315.128296 
	C1373.417969,1310.799316 1321.296021,1251.540894 1322.797974,1204.308105 
	C1329.593018,1204.308105 1336.454956,1204.308105 1344.397827,1204.308105 
	C1346.336914,1192.599609 1345.321533,1181.803955 1345.372559,1169.740479 
	C1337.449463,1169.433716 1330.123291,1169.150146 1322.846802,1168.868408 
	C1322.507080,1124.814331 1369.093872,1066.225952 1429.575806,1058.963013 
	C1430.108276,1066.968872 1430.640015,1074.965576 1431.204468,1083.452393 
	C1443.026245,1083.452393 1453.865356,1083.452393 1465.821777,1083.452393 
	C1466.269287,1075.193359 1466.703735,1067.176758 1467.137573,1059.171143 
	C1530.197998,1064.293823 1575.933228,1127.234009 1575.255859,1169.375977 
	C1568.092651,1169.375977 1560.887207,1169.375977 1552.818115,1169.375977 
	C1552.818115,1181.151001 1552.818115,1191.892700 1552.818115,1203.657104 
	C1560.430298,1203.993652 1567.889038,1204.323364 1575.304077,1204.651123 
	C1573.976562,1260.064819 1518.250122,1313.143066 1466.755615,1314.819336 
	C1466.755615,1307.013184 1466.755615,1299.213989 1466.755615,1290.648438 
	C1454.362183,1290.648438 1443.277344,1290.648438 1431.094971,1290.648438 
	C1430.872559,1296.275391 1430.666260,1301.492432 1430.452393,1307.603149 
z"/>
</svg>